<?xml version="1.0" encoding="utf-8"?><svg viewBox="0 0 86 45" xmlns="http://www.w3.org/2000/svg" xmlns:xlink="http://www.w3.org/1999/xlink"><style>:root>svg{display:none}:root>svg:target{display:block}</style><svg viewBox="0 0 24 24" id="arrow"><path d="M12 16H5.929c-.891 0-1.337-1.078-.707-1.708l6.07-6.071a1 1 0 011.415 0l6.071 6.071c.63.63.184 1.707-.707 1.707H12z"/></svg><svg viewBox="0 0 24 24" id="back"><path d="M20.75 10.756H9.875v-2.5c0-.5-.25-.875-.625-1.125-.5-.25-1-.125-1.375.125L2.5 11.006c-.25.25-.5.625-.5 1s.25.75.5 1l5.375 3.75c.25.125.5.25.75.25s.375 0 .625-.125c.375-.25.625-.625.625-1.125v-2.5H20.75c.75 0 1.25-.5 1.25-1.25s-.5-1.25-1.25-1.25z"/></svg><svg fill="none" viewBox="0 0 17 17" id="breadcrumbsNav" xmlns="http://www.w3.org/2000/svg"><path d="M6.5 9.5V6.257c0-.89 1.077-1.337 1.707-.707l3.243 3.243a1 1 0 010 1.414L8.207 13.45c-.63.63-1.707.184-1.707-.707V9.5z" fill="#8F98A3"/></svg><svg viewBox="0 0 25 24" id="cart"><path d="M20.53 7.505a1.967 1.967 0 00-1.52-.712h-2.473V5.491a2.868 2.868 0 00-2.865-2.865h-2.118a2.868 2.868 0 00-2.865 2.865v1.302h-2.7c-.59 0-1.146.26-1.528.712a2.026 2.026 0 00-.434 1.623l.955 5.383c.009.07.026.139.044.208a4.572 4.572 0 001.215 2.24 4.633 4.633 0 003.342 1.415h5.834c1.302 0 2.5-.539 3.342-1.415.356-.356.651-.782.877-1.242.182-.373.312-.781.382-1.206l.955-5.383a2 2 0 00-.443-1.623zM10.425 5.491c0-.616.504-1.128 1.129-1.128h2.118c.616 0 1.128.512 1.128 1.128v1.302h-4.375V5.491zM9.48 10.5c-.582 0-1.059-.477-1.059-1.06 0-.59.477-1.058 1.06-1.058.59 0 1.067.469 1.067 1.059 0 .582-.478 1.059-1.068 1.059zm6.042 0c-.59 0-1.068-.477-1.068-1.06 0-.59.478-1.058 1.068-1.058.582 0 1.06.469 1.06 1.059 0 .582-.478 1.059-1.06 1.059z"/></svg><svg viewBox="0 0 24 25" id="checkbox" xmlns="http://www.w3.org/2000/svg"><path d="M18.2 2.533H6.3c-2.3 0-4.3 1.9-4.3 4.3v11.8c0 2.4 2 4.3 4.3 4.3h11.8c2.4 0 4.3-2 4.3-4.3v-11.8c.1-2.4-1.8-4.3-4.2-4.3zm2.3 16.2c0 1.3-1 2.3-2.3 2.3H6.3c-1.3 0-2.3-1-2.3-2.3v-11.9c0-1.3 1-2.3 2.3-2.3h11.8c1.3 0 2.3 1 2.3 2.3v11.9h.1z"/></svg><svg viewBox="0 0 24 25" id="checkbox-active" xmlns="http://www.w3.org/2000/svg"><path d="M18.2 2.533H6.3c-2.4 0-4.3 1.9-4.3 4.3v11.8c0 2.4 1.9 4.3 4.3 4.3h11.8c2.4 0 4.3-2 4.3-4.3v-11.8c.1-2.4-1.8-4.3-4.2-4.3zm-.7 7.8l-6.4 6.4c-.4.4-1 .4-1.4 0l-2.8-2.8c-.4-.4-.4-1 0-1.4.4-.4 1-.4 1.4 0l2.2 2 5.7-5.7c.4-.4 1-.4 1.4 0 .3.5.3 1.1-.1 1.5z"/></svg><svg viewBox="0 0 24 25" id="close" xmlns="http://www.w3.org/2000/svg"><path d="M13.933 12.467L18.6 7.8a1.289 1.289 0 000-1.867 1.289 1.289 0 00-1.867 0l-4.8 4.667-4.666-4.667a1.289 1.289 0 00-1.867 0 1.289 1.289 0 000 1.867l4.667 4.667-4.667 4.8a1.289 1.289 0 000 1.866c.267.267.667.4.933.4.267 0 .667-.133.934-.4l4.666-4.666 4.667 4.666c.267.267.667.4.933.4.267 0 .667-.133.934-.4a1.289 1.289 0 000-1.866l-4.534-4.8z"/></svg><svg viewBox="0 0 41 41" id="close-fill"><path fill-rule="evenodd" clip-rule="evenodd" d="M20.667.438c11.037 0 20 8.962 20 20 0 11.037-8.963 20-20 20-11.038 0-20-8.963-20-20 0-11.038 8.962-20 20-20zm-4.935 11.294a2.5 2.5 0 10-3.535 3.536L16.929 20l-5.197 5.197a2.5 2.5 0 103.536 3.535l5.197-5.197 5.167 5.168a2.5 2.5 0 003.535-3.536L24 20l4.703-4.703a2.5 2.5 0 00-3.536-3.535l-4.703 4.703-4.732-4.733z"/></svg><svg viewBox="0 0 33 33" id="facebook" xmlns="http://www.w3.org/2000/svg"><path fill-rule="evenodd" clip-rule="evenodd" d="M18.375 28.01V17.185h3.71l.555-4.307h-4.265v-2.75c0-1.246.347-2.095 2.135-2.095l2.28-.002V4.18c-.395-.053-1.748-.17-3.323-.17-3.287 0-5.539 2.007-5.539 5.694v3.175H10.21v4.308h3.718V28.01h4.447z"/></svg><svg viewBox="0 0 25 25" id="inCart"><path d="M17.87 21.112a.997.997 0 01-.707-.293l-2-2a.999.999 0 111.414-1.414l1.293 1.293 3.292-3.293a.999.999 0 111.414 1.414l-4 4a.993.993 0 01-.706.293z"/><path d="M21.173 9.104c-.43-.52-1.07-.82-1.75-.82h-2.85v-1.5c0-1.82-1.48-3.3-3.3-3.3h-2.44c-1.82 0-3.3 1.48-3.3 3.3v1.5h-3.11c-.68 0-1.32.3-1.76.82-.43.52-.61 1.2-.5 1.87l1.1 6.2c.01.08.03.16.05.24.22 1 .71 1.88 1.4 2.58a5.337 5.337 0 003.85 1.63h5.44c-.71-.98-1.13-2.2-1.13-3.51 0-3.32 2.68-6 6-6 .9 0 1.75.2 2.51.56l.3-1.7c.11-.67-.07-1.35-.51-1.87zm-12.73 3.45c-.67 0-1.22-.55-1.22-1.22 0-.68.55-1.22 1.22-1.22.68 0 1.23.54 1.23 1.22 0 .67-.55 1.22-1.23 1.22zm1.09-4.27v-1.5c0-.71.58-1.3 1.3-1.3h2.44c.71 0 1.3.59 1.3 1.3v1.5h-5.04zm5.87 4.27c-.68 0-1.23-.55-1.23-1.22 0-.68.55-1.22 1.23-1.22.67 0 1.22.54 1.22 1.22 0 .67-.55 1.22-1.22 1.22z"/></svg><svg viewBox="0 0 24 24" id="information"><path fill-rule="evenodd" clip-rule="evenodd" d="M12 4c4.415 0 8 3.585 8 8s-3.585 8-8 8-8-3.585-8-8 3.585-8 8-8zm1.331 12a.996.996 0 000-1.993h-.333v-3.25c0-.443-.239-.757-.68-.757h-1.635a1.006 1.006 0 000 2.01h.312v1.997h-.341a.997.997 0 100 1.993h2.677zM12 6.658a1.342 1.342 0 110 2.684 1.342 1.342 0 010-2.684z"/></svg><svg viewBox="0 0 33 33" id="instagram" xmlns="http://www.w3.org/2000/svg"><path fill-rule="evenodd" clip-rule="evenodd" d="M21.78 28.01H11.22c-3.71 0-6.72-3.01-6.72-6.72V10.73c0-3.71 3.01-6.72 6.72-6.72h10.56c3.71 0 6.72 3.01 6.72 6.72v10.56c0 3.71-3.01 6.72-6.72 6.72zm-.06-21H11.28a3.781 3.781 0 00-3.78 3.78v10.44a3.781 3.781 0 003.78 3.78h10.44a3.781 3.781 0 003.78-3.78V10.79a3.781 3.781 0 00-3.78-3.78zm.78 1.5a1.5 1.5 0 11-.001 3 1.5 1.5 0 01.001-3zm-6 1.5c3.312 0 6 2.688 6 6s-2.688 6-6 6-6-2.688-6-6 2.688-6 6-6zm0 3a3.001 3.001 0 010 6 3.001 3.001 0 010-6z"/></svg><svg viewBox="0 0 24 25" id="menu" xmlns="http://www.w3.org/2000/svg"><path fill-rule="evenodd" clip-rule="evenodd" d="M18 19a1 1 0 010 2H6a1 1 0 010-2h12zm0-5a1 1 0 010 2H6a1 1 0 010-2h12zm0-5a1 1 0 010 2H6a1 1 0 010-2h12z"/></svg><svg viewBox="0 0 24 24" id="minus" xmlns="http://www.w3.org/2000/svg"><path d="M18 13H6c-.6 0-1-.4-1-1s.4-1 1-1h12c.6 0 1 .4 1 1s-.4 1-1 1z"/></svg><svg viewBox="0 0 40 41" id="ok"><path fill-rule="evenodd" clip-rule="evenodd" d="M20 .438c11.038 0 20 8.962 20 20 0 11.037-8.962 20-20 20-11.037 0-20-8.963-20-20 0-11.038 8.963-20 20-20zm7.212 13.555c.355.028.693.113 1.01.278.208.11.4.247.57.41.66.63.925 1.595.683 2.475-.105.38-.303.717-.56 1.015a277.318 277.318 0 01-9.115 9.115c-.205.177-.425.33-.675.44a2.507 2.507 0 01-2.017 0c-.25-.11-.47-.263-.675-.44a157.218 157.218 0 01-5.165-5.165 2.608 2.608 0 01-.56-1.018 2.502 2.502 0 01-.09-.695 2.516 2.516 0 011.447-2.237c.285-.133.593-.21.905-.228.313-.02.627.023.925.12.378.123.703.335.99.608l3.232 3.232c2.42-2.422 4.788-4.9 7.265-7.262.09-.078.09-.078.18-.15.13-.093.26-.175.4-.245.285-.14.585-.215.898-.248.12-.007.235-.01.352-.005z"/></svg><svg viewBox="0 0 24 25" id="pause" xmlns="http://www.w3.org/2000/svg"><path fill-rule="evenodd" clip-rule="evenodd" d="M9 5.533a1 1 0 011 1v12a1 1 0 01-1 1H7a1 1 0 01-1-1v-12a1 1 0 011-1h2zm8 0a1 1 0 011 1v12a1 1 0 01-1 1h-2a1 1 0 01-1-1v-12a1 1 0 011-1h2z"/></svg><svg viewBox="0 0 24 25" id="play"><path fill-rule="evenodd" clip-rule="evenodd" d="M8.304 20.355a1.432 1.432 0 01-2.161-1.23V5.987a1.432 1.432 0 012.186-1.215l10.767 6.505a1.454 1.454 0 010 2.558L8.319 20.346l-.015.009z"/></svg><svg viewBox="0 0 16 17" id="play_2" xmlns="http://www.w3.org/2000/svg"><path fill-rule="evenodd" clip-rule="evenodd" d="M3.891 14.834A1.253 1.253 0 012 13.758V2.262a1.253 1.253 0 011.913-1.063l9.421 5.692a1.273 1.273 0 010 2.238l-9.43 5.698-.013.007z"/></svg><svg viewBox="0 0 24 24" id="play_w16in24" xmlns="http://www.w3.org/2000/svg"><path fill-rule="evenodd" clip-rule="evenodd" d="M6.161 19.799A1.432 1.432 0 014 18.569V5.431a1.432 1.432 0 012.186-1.215l10.767 6.505a1.454 1.454 0 010 2.558L6.176 19.79l-.015.008z"/></svg><svg viewBox="0 0 24 25" id="plus" xmlns="http://www.w3.org/2000/svg"><path d="M13.414 13.853h6.6c.754 0 1.32-.566 1.32-1.32 0-.754-.566-1.32-1.32-1.32l-6.694-.094v-6.6c0-.754-.566-1.32-1.32-1.32-.754 0-1.32.566-1.32 1.32v6.6l-6.694.094c-.754 0-1.32.566-1.32 1.32 0 .377.189.755.377.943.189.189.566.377.943.377h6.6v6.6c0 .377.188.754.377.943.189.188.566.377.943.377.754 0 1.32-.566 1.32-1.32l.188-6.6z"/></svg><svg viewBox="0 0 24 24" id="remove" xmlns="http://www.w3.org/2000/svg"><path d="M9 4.5h6c.6 0 1-.4 1-1s-.4-1-1-1H9c-.6 0-1 .4-1 1s.4 1 1 1zM20 5.5H4c-.6 0-1 .4-1 1s.4 1 1 1h1v10c0 2.2 1.8 4 4 4h6c2.2 0 4-1.8 4-4v-10h1c.6 0 1-.4 1-1s-.4-1-1-1zm-3 12c0 1.1-.9 2-2 2H9c-1.1 0-2-.9-2-2v-10h10v10z"/></svg><svg viewBox="0 0 24 25" id="show-off" xmlns="http://www.w3.org/2000/svg"><path fill-rule="evenodd" clip-rule="evenodd" d="M15.949 7.417l1.578-1.578A1.041 1.041 0 1119 7.312L6.473 19.838A1.041 1.041 0 115 18.366l1.409-1.409C4.823 15.405 4 13.546 4 12.84c0-1.303 2.698-6.512 8-6.512 1.536 0 2.853.437 3.949 1.09zm2.573 2.314C19.505 11.005 20 12.28 20 12.838c0 1.303-2.791 6.513-8 6.513a7.452 7.452 0 01-2.626-.473l2.331-2.33a3.731 3.731 0 004.004-4.004l2.813-2.813zm-4.735-.153A3.688 3.688 0 0012 9.118a3.731 3.731 0 00-3.721 3.72c0 .648.167 1.257.46 1.788l1.319-1.319a1.931 1.931 0 01-.058-.469c0-1.143.857-2 2-2 .163 0 .321.02.471.057l1.316-1.317z"/></svg><svg viewBox="0 0 24 25" id="show-on" xmlns="http://www.w3.org/2000/svg"><path fill-rule="evenodd" clip-rule="evenodd" d="M12 5.533c-5.302 0-8 5.21-8 6.512 0 1.302 2.791 6.512 8 6.512s8-5.21 8-6.512c0-1.302-2.698-6.512-8-6.512zm0 10.233a3.731 3.731 0 01-3.721-3.72A3.731 3.731 0 0112 8.323a3.731 3.731 0 013.721 3.721A3.731 3.731 0 0112 15.766zm0-5.72c1.143 0 2 .952 2 2 0 1.142-.952 2-2 2-1.143 0-2-.953-2-2 0-1.143.857-2 2-2z"/></svg><svg viewBox="0 0 13 13" id="star" xmlns="http://www.w3.org/2000/svg"><g clip-path="url(#axclip0_346_2271)"><path d="M6.167 2.08l1.2 2 .2.4.4.1 2.4.6-1.6 1.8-.2.3v.4l.2 2.4-2.2-.9-.4-.2-.4.2-2.2.9.2-2.4v-.4l-.2-.3-1.6-1.8 2.3-.6.4-.1.2-.4 1.3-2zm0-1.9l-2.1 3.4-3.9 1 2.6 3.1-.3 4 3.7-1.6 3.7 1.5-.3-4 2.6-3-3.9-1-2.1-3.4z"/></g><defs><clipPath id="axclip0_346_2271"><path fill="#fff" transform="translate(.167 .18)" d="M0 0h12v12H0z"/></clipPath></defs></svg><svg viewBox="0 0 13 13" id="star-fill" xmlns="http://www.w3.org/2000/svg"><g clip-path="url(#ayclip0_346_2267)"><path d="M12.167 4.58l-3.9-1-2.1-3.4-2.1 3.4-3.9 1 2.6 3-.3 4 3.7-1.5 3.7 1.5-.3-4 2.6-3z"/></g><defs><clipPath id="ayclip0_346_2267"><path fill="#fff" transform="translate(.167 .18)" d="M0 0h12v12H0z"/></clipPath></defs></svg><svg viewBox="0 0 86 45" id="tail" xmlns="http://www.w3.org/2000/svg"><path d="M26.357 1.632C22.473 19.72 12.389 31.258 1.714 38.012c-2.02 1.277-.902 6.497 1.48 6.31 51.297-4.034 67.018-25.223 81.5-40.855C85.903 2.164 84.997 0 83.22 0H28.34c-.96 0-1.78.692-1.982 1.632z"/></svg><svg viewBox="0 0 33 33" id="tiktok" xmlns="http://www.w3.org/2000/svg"><path d="M22.955 8.376C21.887 7.244 21.4 5.916 21.4 4.363h-4.24v13.075c0 1.035-.032 2.07 0 3.074.066 2.395-2.2 4.142-4.498 3.366-1.52-.518-2.491-2.072-2.265-3.625.227-1.618 1.521-2.88 3.14-2.945.388-.032.808.032 1.229.065v-.033-4.11c0-.129-.065-.161-.162-.161a7.911 7.911 0 00-2.621.161c-4.53 1.133-6.99 5.793-5.405 10.13 1.262 3.43 4.92 5.534 8.48 4.887 3.72-.68 6.31-3.787 6.342-7.573v-3.366-4.886-.26c1.618 1.295 3.463 1.91 5.502 1.942V10.06c-1.553-.032-2.88-.582-3.948-1.683z"/></svg><svg viewBox="0 0 24 24" id="volumn-off" xmlns="http://www.w3.org/2000/svg"><path fill-rule="evenodd" clip-rule="evenodd" d="M10.937 5.291A1 1 0 0112.642 6v12a1 1 0 01-1.697.717L7 15H5.25C4.56 15 4 14.44 4 13.75v-3.5C4 9.56 4.56 9 5.25 9H7l3.937-3.709zm6.056 6.09l1.554-1.553a.82.82 0 011.16 1.161l-1.553 1.553 1.553 1.553a.81.81 0 11-1.147 1.147l-1.554-1.553-1.553 1.553a.819.819 0 11-1.16-1.16l1.553-1.553-1.553-1.553a.812.812 0 011.147-1.148l1.553 1.553z"/></svg><svg viewBox="0 0 24 24" id="volumn-on" xmlns="http://www.w3.org/2000/svg"><path fill-rule="evenodd" clip-rule="evenodd" d="M10.937 5.291A1 1 0 0112.642 6v12a1 1 0 01-1.697.717L7 15H5.25C4.56 15 4 14.44 4 13.75v-3.5C4 9.56 4.56 9 5.25 9H7l3.937-3.709zm7.35 6.71a5.105 5.105 0 00-4.115-4.974l-.021-.007a.862.862 0 01.507-1.646l.303.08A6.821 6.821 0 0120 12a6.821 6.821 0 01-5.039 6.547l-.303.08a.861.861 0 01-.507-1.647l.021-.007A5.105 5.105 0 0018.287 12zM15 12a1.812 1.812 0 00-.952-1.564l-.01-.008a.833.833 0 01.939-1.369l.186.109A3.478 3.478 0 0116.666 12a3.478 3.478 0 01-1.503 2.831l-.186.11a.832.832 0 01-.939-1.37l.01-.008c.558-.3.94-.887.952-1.563z"/></svg></svg>