<svg width="36" height="41" viewBox="0 0 36 41" fill="none" xmlns="http://www.w3.org/2000/svg">
<path fill-rule="evenodd" clip-rule="evenodd" d="M13.3943 38.3344C13.7598 38.8576 13.7273 39.5611 13.3167 40.0518C12.9061 40.54 12.2202 40.6927 11.6418 40.4248C4.56442 36.7472 -2.10243 29.6197 1.52767 19.7583C4.73216 11.0561 17.6327 7.80407 15.5824 2.06352C15.4247 1.693 15.4847 1.26741 15.7376 0.954466C15.9904 0.641528 16.391 0.511345 16.7891 0.568926C19.8083 1.00203 22.3519 3.36535 22.8325 6.66998C23.3458 10.1949 20.2264 13.3644 21.736 18.6443C22.5046 21.3305 25.5088 22.0115 26.1722 21.5534C26.8231 21.1002 26.0245 20.567 25.5288 19.0098C24.4173 15.5174 25.6941 12.8537 27.4365 10.971C28.0924 10.265 29.4418 10.5654 29.3642 11.9649C29.249 13.9978 30.4733 15.5725 32.4285 17.8757C36.6244 22.8201 35.5879 29.5345 34.6691 31.9429C33.3974 35.2651 30.7612 37.9013 27.9021 39.7839C27.3439 40.1519 26.6078 40.0868 26.1196 39.6287C25.6315 39.1731 25.5213 38.442 25.8518 37.8587C26.8331 36.4768 27.5617 34.9346 27.6468 33.2873C27.7695 30.8689 26.6128 29.0338 25.9544 28.07C25.7867 27.8271 25.5013 27.692 25.2084 27.7145C24.913 27.737 24.6276 27.9048 24.5274 28.1801C23.8014 30.1679 21.5958 32.8968 20.1588 32.9794C19.0923 32.8717 17.1295 31.4247 16.2508 28.6783C15.6224 26.7181 15.6074 23.8466 15.6224 22.1342C15.6274 21.8613 15.4797 21.6084 15.2419 21.4757C15.0041 21.3456 14.7112 21.3556 14.4833 21.5033C12.9011 22.7726 10.4952 25.7167 10.6079 31.1092C10.6655 33.9357 11.9197 36.3992 13.3943 38.3344Z" fill="#E63189"/>
</svg>
