<svg width="88" height="105" viewBox="0 0 88 105" fill="none" xmlns="http://www.w3.org/2000/svg">
<g clip-path="url(#clip0_1323_3039)">
<path d="M47.6 41.759C47.6 43.559 46 45.059 44.3 45.059C42.4 45.059 41 43.659 41 41.759C41 39.959 42.6 38.459 44.3 38.459C46 38.459 47.6 39.859 47.6 41.759Z" fill="white"/>
<path d="M25.6 20.959C25.6 22.359 24.6 23.059 23.3 23.059C22 23.059 21 22.059 21 20.759C21 19.559 22.2 18.459 23.3 18.459C24.6 18.659 25.6 19.859 25.6 20.959Z" fill="white"/>
<path d="M40.5 26.459C40.5 27.459 39.5 28.259 38.6 28.059C37.6 28.059 37 27.059 37 26.259C37 25.259 38 24.459 38.9 24.459C39.8 24.659 40.5 25.459 40.5 26.459Z" fill="white"/>
<path d="M58.9589 49C52.8589 49.1 47.2589 52.5 44.2589 57.8C41.2589 52.5 35.6589 49.1 29.5589 49C19.6589 49.5 11.8589 57.9 12.2589 67.8C12.2589 80 25.0589 93.2 35.7589 102.2C40.6589 106.3 47.8589 106.3 52.8589 102.2C63.4589 93.2 76.2589 80 76.2589 67.8C76.6589 57.9 68.8589 49.5 58.9589 49Z" fill="white"/>
<path d="M80.8101 18.6406C78.6101 18.6406 76.6101 19.8406 75.5101 21.8406C74.4101 19.9406 72.4101 18.7406 70.2101 18.6406C66.6101 18.8406 63.8101 21.8406 64.0101 25.4406C64.0101 29.8406 68.6101 34.5406 72.4101 37.7406C74.2101 39.2406 76.8101 39.2406 78.5101 37.7406C82.3101 34.5406 86.9101 29.7406 86.9101 25.4406C87.1101 21.8406 84.3101 18.7406 80.8101 18.6406Z" fill="white"/>
<path d="M8.60473 0.458984C7.50473 0.458984 6.40473 1.05898 5.90473 2.05898C5.40473 1.05898 4.30473 0.458984 3.20473 0.458984C1.40473 0.558984 -0.095272 2.05898 0.00472795 3.95898C0.00472795 6.15898 2.40473 8.65898 4.30473 10.359C5.20473 11.159 6.50473 11.159 7.50473 10.359C9.50473 8.65898 11.8047 6.25898 11.8047 3.95898C11.9047 2.05898 10.5047 0.558984 8.60473 0.458984Z" fill="white"/>
<path d="M65.6883 0.458984C64.7883 0.458984 63.9883 0.958984 63.5883 1.75898C63.1883 0.958984 62.3883 0.558984 61.4883 0.458984C60.0883 0.558984 58.9883 1.75898 58.9883 3.15898C58.9883 4.85898 60.7883 6.75898 62.3883 8.05898C63.0883 8.65899 64.0883 8.65899 64.7883 8.05898C66.2883 6.75898 68.1883 4.85898 68.1883 3.15898C68.2883 1.65898 67.0883 0.458984 65.6883 0.458984Z" fill="white"/>
</g>
<defs>
<clipPath id="clip0_1323_3039">
<rect width="87" height="105" fill="white" transform="translate(0.244141)"/>
</clipPath>
</defs>
</svg>
