<svg width="51" height="33" viewBox="0 0 51 33" fill="none" xmlns="http://www.w3.org/2000/svg">
<g clip-path="url(#clip0_500_907)">
<path d="M46.4998 0.555664H5.46746C5.29656 0.555664 5.12537 0.555664 4.95478 0.556661C4.81058 0.557687 4.66671 0.559288 4.52284 0.563214C4.20908 0.5717 3.89263 0.590211 3.58279 0.645898C3.268 0.70255 2.97507 0.794958 2.6893 0.940455C2.40837 1.08332 2.15117 1.27019 1.92827 1.49318C1.70528 1.71617 1.51841 1.97295 1.37557 2.25419C1.23005 2.53996 1.13758 2.83297 1.08132 3.148C1.02533 3.45793 1.0067 3.77432 0.998242 4.08776C0.994377 4.23162 0.992719 4.37549 0.99178 4.51932C0.990783 4.69028 0.991115 4.86111 0.991115 5.03237V28.0793C0.991115 28.2505 0.990783 28.4211 0.99178 28.5924C0.992719 28.7362 0.994377 28.8801 0.998242 29.0239C1.0067 29.3371 1.02533 29.6535 1.08132 29.9633C1.13758 30.2785 1.23005 30.5714 1.37557 30.8572C1.51841 31.1384 1.70528 31.3955 1.92827 31.6182C2.15117 31.8415 2.40837 32.0284 2.6893 32.1709C2.97507 32.3168 3.268 32.4092 3.58279 32.4658C3.89263 32.5211 4.20908 32.54 4.52284 32.5485C4.66671 32.5517 4.81058 32.5537 4.95478 32.5543C5.12537 32.5557 5.29656 32.5557 5.46746 32.5557H46.4998C46.6704 32.5557 46.8416 32.5557 47.0121 32.5543C47.156 32.5537 47.2999 32.5517 47.4444 32.5485C47.7575 32.54 48.0739 32.5211 48.3845 32.4658C48.6989 32.4092 48.9919 32.3168 49.2777 32.1709C49.5589 32.0284 49.8153 31.8415 50.0387 31.6182C50.2613 31.3955 50.4482 31.1384 50.5914 30.8572C50.7372 30.5714 50.8296 30.2785 50.8856 29.9633C50.9416 29.6535 50.9598 29.3371 50.9683 29.0239C50.9722 28.8801 50.9742 28.7362 50.9748 28.5924C50.9761 28.4211 50.9761 28.2506 50.9761 28.0793V5.03237C50.9761 4.86111 50.9761 4.69028 50.9748 4.51932C50.9742 4.37549 50.9722 4.23162 50.9683 4.08776C50.9598 3.77432 50.9416 3.45793 50.8856 3.148C50.8296 2.83297 50.7372 2.53996 50.5914 2.25419C50.4482 1.97295 50.2613 1.71617 50.0387 1.49318C49.8153 1.27019 49.5589 1.08332 49.2777 0.940455C48.9919 0.794958 48.6989 0.70255 48.3845 0.645898C48.0739 0.590211 47.7575 0.5717 47.4444 0.563214C47.2999 0.559288 47.156 0.557687 47.0121 0.556661C46.8416 0.555664 46.6704 0.555664 46.4998 0.555664Z" fill="black"/>
<path d="M46.4998 1.62207L47.0046 1.62304C47.1413 1.624 47.278 1.62548 47.4155 1.62923C47.6547 1.63569 47.9345 1.64865 48.1953 1.69539C48.422 1.73622 48.6121 1.79831 48.7946 1.8912C48.9747 1.98273 49.1398 2.10268 49.2839 2.24658C49.4285 2.39144 49.5486 2.55675 49.6414 2.73888C49.7337 2.91992 49.7954 3.10914 49.836 3.3375C49.8826 3.59546 49.8955 3.876 49.9021 4.11666C49.9058 4.25249 49.9076 4.38832 49.9083 4.52739C49.9095 4.69557 49.9095 4.86365 49.9095 5.03216V28.0791C49.9095 28.2476 49.9096 28.4154 49.9082 28.5871C49.9076 28.7229 49.9058 28.8588 49.9021 28.9949C49.8955 29.2351 49.8827 29.5155 49.8354 29.7765C49.7954 30.0018 49.7338 30.191 49.6409 30.373C49.5484 30.5546 49.4285 30.7198 49.2845 30.8637C49.1396 31.0087 48.9751 31.1283 48.7928 31.2206C48.6117 31.3131 48.4219 31.3751 48.1974 31.4155C47.9313 31.4629 47.6398 31.476 47.4203 31.4819C47.2822 31.485 47.1447 31.4869 47.0039 31.4876C46.8361 31.4889 46.6676 31.4888 46.4998 31.4888H5.46745C5.46522 31.4888 5.46304 31.4888 5.46078 31.4888C5.29487 31.4888 5.12863 31.4888 4.95969 31.4875C4.82196 31.4869 4.68452 31.4851 4.55165 31.482C4.32709 31.476 4.03541 31.463 3.7715 31.4158C3.5451 31.3751 3.3553 31.3131 3.17182 31.2194C2.99126 31.1279 2.82689 31.0084 2.6819 30.8632C2.53804 30.7196 2.41848 30.5549 2.32604 30.373C2.23351 30.1912 2.17161 30.0014 2.1309 29.7735C2.08385 29.513 2.07092 29.2337 2.06446 28.9951C2.06078 28.8584 2.05924 28.7218 2.05836 28.586L2.0577 28.185L2.05773 28.0791V5.03216L2.0577 4.92628L2.05833 4.52612C2.05924 4.38947 2.06078 4.25285 2.06446 4.11633C2.07092 3.87742 2.08385 3.59803 2.13129 3.33536C2.17164 3.1095 2.23351 2.91967 2.32653 2.737C2.41824 2.55645 2.53801 2.39162 2.68263 2.24703C2.82668 2.10292 2.99159 1.98312 3.17329 1.89072C3.35482 1.79828 3.54498 1.73622 3.77138 1.69548C4.03223 1.64861 4.31221 1.63569 4.55198 1.6292C4.68866 1.62548 4.82534 1.624 4.96099 1.62307L5.46745 1.62207H46.4998Z" fill="white"/>
<path d="M14.6367 11.3187C15.0647 10.7834 15.3551 10.0646 15.2785 9.33008C14.652 9.36123 13.8874 9.74341 13.4448 10.2791C13.0474 10.7379 12.6956 11.4868 12.7873 12.1905C13.4906 12.2515 14.1932 11.839 14.6367 11.3187Z" fill="black"/>
<path d="M15.2705 12.3283C14.2491 12.2675 13.3807 12.908 12.893 12.908C12.405 12.908 11.6581 12.359 10.8503 12.3737C9.7988 12.3892 8.82318 12.9837 8.28962 13.9292C7.19217 15.8207 8 18.6265 9.06722 20.1671C9.58548 20.9292 10.2101 21.7684 11.0331 21.7383C11.8107 21.7077 12.1155 21.2347 13.0607 21.2347C14.0052 21.2347 14.2797 21.7383 15.1028 21.723C15.9565 21.7077 16.4901 20.9605 17.0084 20.1976C17.6029 19.3288 17.8463 18.4898 17.8616 18.4438C17.8463 18.4285 16.2156 17.803 16.2005 15.9272C16.1851 14.3565 17.4808 13.6095 17.5417 13.5631C16.8101 12.481 15.6668 12.359 15.2705 12.3283Z" fill="black"/>
<path d="M24.1636 10.2022C26.3835 10.2022 27.9293 11.7323 27.9293 13.9602C27.9293 16.196 26.3517 17.7341 24.108 17.7341H21.6501V21.6428H19.8743V10.2021H24.1636V10.2022ZM21.6501 16.2435H23.6877C25.2338 16.2435 26.1138 15.4111 26.1138 13.9681C26.1138 12.5253 25.2338 11.7007 23.6957 11.7007H21.6501V16.2435Z" fill="black"/>
<path d="M28.3933 19.2721C28.3933 17.8132 29.5112 16.9174 31.4934 16.8063L33.7766 16.6716V16.0295C33.7766 15.1018 33.1502 14.5468 32.1039 14.5468C31.1126 14.5468 30.4942 15.0224 30.3437 15.7678H28.7264C28.8215 14.2613 30.1058 13.1514 32.1672 13.1514C34.1889 13.1514 35.4811 14.2217 35.4811 15.8946V21.6426H33.8399V20.271H33.8005C33.3169 21.1987 32.2623 21.7853 31.1683 21.7853C29.535 21.7853 28.3933 20.7705 28.3933 19.2721ZM33.7766 18.519V17.8609L31.7231 17.9877C30.7003 18.0591 30.1217 18.511 30.1217 19.2246C30.1217 19.9539 30.7242 20.4296 31.6439 20.4296C32.841 20.4296 33.7766 19.605 33.7766 18.519Z" fill="black"/>
<path d="M37.0306 24.7107V23.3232C37.1572 23.3549 37.4426 23.3549 37.5854 23.3549C38.3782 23.3549 38.8064 23.022 39.0679 22.1657C39.0679 22.1498 39.2187 21.6583 39.2187 21.6504L36.206 13.3018H38.061L40.1702 20.0885H40.2017L42.3109 13.3018H44.1185L40.9945 22.0784C40.2812 24.1002 39.4566 24.7503 37.7283 24.7503C37.5854 24.7503 37.1572 24.7344 37.0306 24.7107Z" fill="black"/>
</g>
<defs>
<clipPath id="clip0_500_907">
<rect width="49.9851" height="32" fill="white" transform="translate(0.991058 0.555664)"/>
</clipPath>
</defs>
</svg>
