<svg width="40" height="25" viewBox="0 0 40 25" fill="none" xmlns="http://www.w3.org/2000/svg">
<path d="M25.7932 3.12891H14.2679V22.1212H25.7932V3.12891Z" fill="#FF5F00"/>
<path d="M15.5665 12.5434C15.5665 8.80988 17.1898 5.401 20.1117 3.12841C14.9172 -0.929782 7.28783 -0.118143 3.22964 5.07634C-0.828554 10.2708 -0.0169163 17.9002 5.17757 21.9584C9.56042 25.3673 15.7289 25.3673 20.1117 21.9584C17.1898 19.6858 15.5665 16.277 15.5665 12.5434Z" fill="#EB001B"/>
<path d="M38.4547 20.0104V19.6858H38.6171H38.2924H38.4547V20.0104ZM39.2664 20.0104V19.5234H39.1041L38.9417 19.8481L38.7794 19.5234H38.6171V20.0104H38.7794V19.6858L38.9417 20.0104H39.1041L39.2664 19.6858V20.0104Z" fill="#F79E1B"/>
<path d="M39.591 12.5434C39.591 19.1989 34.2342 24.5557 27.5788 24.5557C24.8192 24.5557 22.222 23.5817 20.1117 21.9584C25.3062 17.9002 26.2802 10.2708 22.0597 5.07634C21.5727 4.42703 20.9234 3.61539 20.1117 3.12841C25.3062 -0.929782 32.9356 -0.118143 36.9938 5.07634C38.6171 7.1866 39.591 9.78384 39.591 12.5434Z" fill="#F79E1B"/>
</svg>
