<svg width="1215" height="205" viewBox="0 0 1215 205" fill="none" xmlns="http://www.w3.org/2000/svg">
<g clip-path="url(#clip0_1239_2392)">
<path d="M1170.04 1.22631C1167.3 1.765 1164.61 2.35265 1161.92 2.84236C1146 6.07446 1130.43 8.96376 1115.15 11.6082C1115 11.6572 1114.85 11.7061 1114.76 11.6572C1038.41 24.7325 970.585 30.9029 912.211 32.8617C879.89 33.9391 850.507 33.7432 824.112 32.7638C815.248 32.421 807.021 35.2123 800.459 40.1584C800.459 40.1584 800.41 40.1584 800.41 40.2074C791.35 47.0144 785.474 57.886 785.474 70.1288V165.084C785.474 184.868 800.997 201.274 820.782 202.4C856.825 204.555 891.447 204.702 924.16 203.526C946.785 202.694 968.479 201.225 989.145 199.217V46.2798H1030.72V57.7881C1039.24 47.7979 1051.09 42.7539 1066.27 42.7539C1082.97 42.7539 1096.98 49.0712 1108.24 61.7057C1119.56 74.2913 1125.19 90.0601 1125.19 108.914C1125.19 127.768 1119.56 143.537 1108.24 156.122C1096.98 168.757 1082.97 175.074 1066.27 175.074C1051.09 175.074 1039.24 170.03 1030.72 160.04V194.565C1062.45 190.353 1090.96 185.26 1115.54 180.069C1146.54 173.507 1171.27 166.847 1188.31 161.754C1204.18 157.053 1215 142.508 1215 125.907V37.8078C1215 14.1057 1193.26 -3.57287 1170.04 1.22631ZM900.948 127.327C905.6 132.077 911.476 134.477 918.479 134.477C928.812 134.477 936.109 130.314 940.272 121.94L975.825 142.459C970.34 152.498 962.553 160.432 952.416 166.308C942.328 172.136 931.065 175.074 918.724 175.074C899.674 175.074 883.808 168.708 871.124 156.024C858.441 143.341 852.074 127.621 852.074 108.914C852.074 90.207 858.441 74.4872 871.124 61.8037C883.808 49.1201 899.674 42.7539 918.724 42.7539C931.065 42.7539 942.328 45.6922 952.416 51.5197C962.553 57.3963 970.34 65.2317 975.825 75.0749L940.272 95.6428C935.766 87.4646 928.518 83.351 918.479 83.351C911.476 83.351 905.6 85.7506 900.948 90.5008C896.246 95.251 893.945 101.372 893.945 108.914C893.945 116.407 896.246 122.577 900.948 127.327ZM1057.02 136.24C1064.85 136.24 1071.22 133.693 1076.07 128.698C1080.92 123.703 1083.32 117.092 1083.32 108.914C1083.32 100.736 1080.92 94.1247 1076.07 89.1296C1071.22 84.0856 1064.85 81.5881 1057.02 81.5881C1049.18 81.5881 1042.82 84.0856 1037.97 89.1296C1033.12 94.1247 1030.72 100.736 1030.72 108.914C1030.72 117.092 1033.12 123.703 1037.97 128.698C1042.82 133.693 1049.18 136.24 1057.02 136.24Z" fill="url(#paint0_linear_1239_2392)"/>
<path d="M52.3061 169.618H73.5058L103.667 70.4268L134.436 169.618H155.689L194.102 40.7552L211.134 37.9638V26.2793H198.422H184.563H165.15V37.9638L180.537 40.432L155.425 128.81L130.165 40.2802L149.23 37.9638V26.2793H126.169H103.985H84.0689V37.9638L99.9502 39.9129L73.9318 127.777L51.4491 39.7366L67.5215 37.9638V26.2793H48.0114H9.42206H0V37.9638L13.3398 39.384L52.3061 169.618Z" fill="white"/>
<path d="M274.998 159.07L264.822 156.91C264.616 146.215 264.513 132.767 264.513 123.517V91.8224C271.232 85.51 277.941 81.7882 283.911 81.7882C292.725 81.7882 295.59 86.5874 295.59 100.696V123.521C295.59 132.948 295.492 146.058 295.291 156.587L284.023 159.075V169.197H294.939H330.913H341.427V159.075L330.561 156.856C330.355 146.283 330.257 133.032 330.257 123.521V98.174C330.257 73.0714 317.573 60.7551 298.396 60.7551C285.742 60.7551 275.439 65.3976 263.862 78.894V43.8405L264.733 13.4244L261.217 11.2109L216.345 21.0003V30.1824L229.846 32.3567V123.517C229.846 132.66 229.743 145.892 229.548 156.523L217.746 159.07V169.192H229.195H265.164H274.993L274.998 159.07Z" fill="white"/>
<path d="M393.2 108.595C359.659 118.311 351.089 129.197 351.089 144.677C351.089 162.576 362.788 172.492 379.61 172.492C394.458 172.492 401.358 166.493 410.898 156.484C414.017 166.518 421.799 172.306 434.551 172.306C447.753 172.306 455.511 167.752 460.731 155.881L454.967 152.037C452.416 155.651 450.653 156.822 448.366 156.822C445.246 156.822 443.459 154.755 443.459 150.46V101.68C443.459 72.5471 432.426 60.7549 404.527 60.7549C373.2 60.7549 355.693 73.0173 354.537 91.1219C356.226 98.2864 361.437 102.018 369.194 102.018C377.578 102.018 384.605 96.1855 385.154 81.7146L386.138 72.2631C388.268 72.0427 390.212 71.9546 392.112 71.9546C405.996 71.9546 409.732 77.6499 409.732 96.925V104.041C403.591 105.657 397.612 107.302 393.2 108.595ZM396.304 154.902C388.964 154.902 383.239 149.863 383.239 138.962C383.239 128.732 389.654 121.406 399.497 117.243C402.142 116.029 405.736 114.77 409.742 113.526V148.869C403.528 153.32 400.232 154.902 396.304 154.902Z" fill="white"/>
<path d="M533.904 149.878C529.658 153.071 526.093 154.711 522.092 154.711C515.637 154.711 511.01 150.084 511.01 139.873V78.9726H533.811V64.0511H511.117L511.494 33.5273H489.306L478.277 63.9434L462.313 66.005V78.9677H476.348V120.378C476.348 128.86 476.132 134.682 476.132 142.258C476.132 163.717 487.68 172.488 507.4 172.488C523.301 172.488 533.473 166.161 539.227 155.118L533.904 149.878Z" fill="white"/>
<path d="M602.821 113.134V123.516C602.821 132.664 602.718 145.911 602.522 156.547L590.818 159.074V169.197H602.17H638.021H648.535V159.074L637.674 156.836C637.468 146.156 637.37 132.747 637.37 123.521V94.6479L638.021 63.0859L634.285 60.7549L588.727 75.221V83.7762L602.17 85.7302C602.6 94.4275 602.821 101.171 602.821 113.134Z" fill="white"/>
<path d="M619.716 44.649C629.961 44.649 638.154 37.4209 638.154 27.3328C638.154 17.186 629.966 10.0215 619.716 10.0215C609.466 10.0215 601.278 17.186 601.278 27.3328C601.278 37.4209 609.471 44.649 619.716 44.649Z" fill="white"/>
<path d="M717.761 102.63L707.154 99.6086C692.203 95.1131 688.966 90.9407 688.966 84.9222C688.966 77.0427 695.455 72.7381 705.176 72.7381C710.092 72.7381 713.731 73.267 717.129 74.4276L721.527 93.3697H738.995L740.494 69.5158C729.26 63.8597 718.863 60.7549 706.018 60.7549C676.694 60.7549 660.602 76.269 660.602 96.3276C660.602 112.689 670.102 123.84 686.924 128.771L698.657 132.155C712.991 136.371 717.007 140.842 717.007 147.684C717.007 156.435 710.117 160.509 697.605 160.509C691.615 160.509 686.488 159.412 681.322 157.341L677.678 135.808H660.186L659.642 162.502C671.087 169.197 683.266 172.492 697.487 172.492C728.153 172.492 746.688 159.27 746.688 136.268C746.684 120.118 738.417 108.791 717.761 102.63Z" fill="white"/>
</g>
<defs>
<linearGradient id="paint0_linear_1239_2392" x1="785.475" y1="102.349" x2="1215" y2="102.349" gradientUnits="userSpaceOnUse">
<stop stop-color="#E1CDFF"/>
<stop offset="0.5499" stop-color="#AD68FF"/>
<stop offset="1" stop-color="#9D4DFF"/>
</linearGradient>
<clipPath id="clip0_1239_2392">
<rect width="1215" height="203.823" fill="white" transform="translate(0 0.4375)"/>
</clipPath>
</defs>
</svg>
