<svg width="31" height="41" viewBox="0 0 31 41" fill="none" xmlns="http://www.w3.org/2000/svg">
<path fill-rule="evenodd" clip-rule="evenodd" d="M25.6666 20.5557C25.6666 19.1757 26.7866 18.0557 28.1666 18.0557C29.5466 18.0557 30.6666 19.1757 30.6666 20.5557C30.6666 20.5632 30.6666 20.5732 30.6666 20.5807V20.6232C30.6666 28.9382 23.9141 35.6907 15.5991 35.6907C14.7716 35.6907 13.9591 35.6232 13.1666 35.4932V38.3682C13.1666 39.5757 12.2966 40.5557 11.2216 40.5557C10.7491 40.5557 10.3166 40.3657 9.97913 40.0507L2.30413 33.5757C1.81663 33.1782 1.49913 32.5332 1.49913 31.8057C1.49913 31.0782 1.81663 30.4332 2.30413 30.0357L9.97913 23.5607C10.3166 23.2457 10.7491 23.0557 11.2216 23.0557C12.2966 23.0557 13.1666 24.0357 13.1666 25.2432V30.3932C13.9466 30.5882 14.7616 30.6907 15.5991 30.6907C21.1566 30.6907 25.6666 26.1782 25.6666 20.6232V20.5557ZM18.1666 5.75066V2.74316C18.1666 1.53566 19.0366 0.555664 20.1116 0.555664C20.5841 0.555664 21.0166 0.745664 21.3541 1.06066L29.0291 7.53566C29.5166 7.93316 29.8341 8.57816 29.8341 9.30566C29.8341 10.0332 29.5166 10.6782 29.0291 11.0757L21.3541 17.5507C21.0166 17.8657 20.5841 18.0557 20.1116 18.0557C19.0366 18.0557 18.1666 17.0757 18.1666 15.8682V10.8532C17.3866 10.6582 16.5716 10.5557 15.7341 10.5557C10.1991 10.5557 5.70413 15.0307 5.66663 20.5557C5.66663 21.9357 4.54663 23.0557 3.16663 23.0557C1.78663 23.0557 0.666626 21.9357 0.666626 20.5557C0.666626 20.5382 0.666626 20.5207 0.666626 20.5032C0.731626 12.2432 7.45663 5.55566 15.7341 5.55566C16.5616 5.55566 17.3741 5.62316 18.1666 5.75066Z" fill="#E63189"/>
</svg>
