<?xml version="1.0" encoding="utf-8"?><svg viewBox="0 0 33 33" xmlns="http://www.w3.org/2000/svg" xmlns:xlink="http://www.w3.org/1999/xlink"><style>:root>svg{display:none}:root>svg:target{display:block}</style><svg viewBox="0 0 24 24" id="back"><path d="M20.75 10.756H9.875v-2.5c0-.5-.25-.875-.625-1.125-.5-.25-1-.125-1.375.125L2.5 11.006c-.25.25-.5.625-.5 1s.25.75.5 1l5.375 3.75c.25.125.5.25.75.25s.375 0 .625-.125c.375-.25.625-.625.625-1.125v-2.5H20.75c.75 0 1.25-.5 1.25-1.25s-.5-1.25-1.25-1.25z"/></svg><svg viewBox="0 0 25 24" id="cart"><path d="M21.75 8.55c-.43-.52-1.07-.82-1.75-.82h-2.85v-1.5c0-1.82-1.48-3.3-3.3-3.3h-2.44c-1.82 0-3.3 1.48-3.3 3.3v1.5H5c-.68 0-1.32.3-1.76.82-.43.52-.61 1.2-.5 1.87l1.1 6.2c.01.08.03.16.05.24.22 1 .71 1.88 1.4 2.58a5.338 5.338 0 003.85 1.63h6.72c1.5 0 2.88-.62 3.85-1.63.41-.41.75-.9 1.01-1.43.21-.43.36-.9.44-1.39l1.1-6.2c.11-.67-.07-1.35-.51-1.87zM10.11 6.23c0-.71.58-1.3 1.3-1.3h2.44c.71 0 1.3.59 1.3 1.3v1.5h-5.04v-1.5zM9.02 12c-.67 0-1.22-.55-1.22-1.22 0-.68.55-1.22 1.22-1.22.68 0 1.23.54 1.23 1.22 0 .67-.55 1.22-1.23 1.22zm6.96 0c-.68 0-1.23-.55-1.23-1.22 0-.68.55-1.22 1.23-1.22.67 0 1.22.54 1.22 1.22 0 .67-.55 1.22-1.22 1.22z"/></svg><svg viewBox="0 0 24 25" id="checkbox" xmlns="http://www.w3.org/2000/svg"><path d="M18.2 2.533H6.3c-2.3 0-4.3 1.9-4.3 4.3v11.8c0 2.4 2 4.3 4.3 4.3h11.8c2.4 0 4.3-2 4.3-4.3v-11.8c.1-2.4-1.8-4.3-4.2-4.3zm2.3 16.2c0 1.3-1 2.3-2.3 2.3H6.3c-1.3 0-2.3-1-2.3-2.3v-11.9c0-1.3 1-2.3 2.3-2.3h11.8c1.3 0 2.3 1 2.3 2.3v11.9h.1z"/></svg><svg viewBox="0 0 24 25" id="checkbox-active" xmlns="http://www.w3.org/2000/svg"><path d="M18.2 2.533H6.3c-2.4 0-4.3 1.9-4.3 4.3v11.8c0 2.4 1.9 4.3 4.3 4.3h11.8c2.4 0 4.3-2 4.3-4.3v-11.8c.1-2.4-1.8-4.3-4.2-4.3zm-.7 7.8l-6.4 6.4c-.4.4-1 .4-1.4 0l-2.8-2.8c-.4-.4-.4-1 0-1.4.4-.4 1-.4 1.4 0l2.2 2 5.7-5.7c.4-.4 1-.4 1.4 0 .3.5.3 1.1-.1 1.5z"/></svg><svg viewBox="0 0 33 33" id="facebook" xmlns="http://www.w3.org/2000/svg"><path fill-rule="evenodd" clip-rule="evenodd" d="M18.375 28.01V17.185h3.71l.555-4.307h-4.265v-2.75c0-1.246.347-2.095 2.135-2.095l2.28-.002V4.18c-.395-.053-1.748-.17-3.323-.17-3.287 0-5.539 2.007-5.539 5.694v3.175H10.21v4.308h3.718V28.01h4.447z"/></svg><svg viewBox="0 0 33 33" id="instagram" xmlns="http://www.w3.org/2000/svg"><path fill-rule="evenodd" clip-rule="evenodd" d="M21.78 28.01H11.22c-3.71 0-6.72-3.01-6.72-6.72V10.73c0-3.71 3.01-6.72 6.72-6.72h10.56c3.71 0 6.72 3.01 6.72 6.72v10.56c0 3.71-3.01 6.72-6.72 6.72zm-.06-21H11.28a3.781 3.781 0 00-3.78 3.78v10.44a3.781 3.781 0 003.78 3.78h10.44a3.781 3.781 0 003.78-3.78V10.79a3.781 3.781 0 00-3.78-3.78zm.78 1.5a1.5 1.5 0 11-.001 3 1.5 1.5 0 01.001-3zm-6 1.5c3.312 0 6 2.688 6 6s-2.688 6-6 6-6-2.688-6-6 2.688-6 6-6zm0 3a3.001 3.001 0 010 6 3.001 3.001 0 010-6z"/></svg><svg viewBox="0 0 33 33" id="tiktok" xmlns="http://www.w3.org/2000/svg"><path d="M22.955 8.376C21.887 7.244 21.4 5.916 21.4 4.363h-4.24v13.075c0 1.035-.032 2.07 0 3.074.066 2.395-2.2 4.142-4.498 3.366-1.52-.518-2.491-2.072-2.265-3.625.227-1.618 1.521-2.88 3.14-2.945.388-.032.808.032 1.229.065v-.033-4.11c0-.129-.065-.161-.162-.161a7.911 7.911 0 00-2.621.161c-4.53 1.133-6.99 5.793-5.405 10.13 1.262 3.43 4.92 5.534 8.48 4.887 3.72-.68 6.31-3.787 6.342-7.573v-3.366-4.886-.26c1.618 1.295 3.463 1.91 5.502 1.942V10.06c-1.553-.032-2.88-.582-3.948-1.683z"/></svg></svg>