<svg width="1216" height="349" viewBox="0 0 1216 349" fill="none" xmlns="http://www.w3.org/2000/svg">
<g clip-path="url(#clip0_1215_2314)">
<path d="M47.7208 160.084H66.8594L94.0884 70.6021L121.866 160.084H141.053L175.731 43.8405L191.107 41.3181V30.7822H179.631H167.119H149.594V41.3181L163.485 43.549L140.814 123.273L118.01 43.412L135.221 41.3181V30.7822H114.403H94.3757H76.3955V41.3181L90.7328 43.0807L67.244 122.336L46.9471 42.9217L61.4569 41.3181V30.7822H43.8436H9.00603H0.5V41.3181L12.5428 42.6036L47.7208 160.084Z" fill="white"/>
<path d="M248.762 150.569L239.575 148.621C239.389 138.973 239.297 126.842 239.297 118.497V89.9069C245.362 84.2126 251.419 80.8553 256.808 80.8553C264.766 80.8553 267.352 85.1845 267.352 97.9115V118.502C267.352 127.005 267.264 138.831 267.083 148.329L256.91 150.573V159.704H266.764H299.241H308.733V150.573L298.923 148.572C298.737 139.035 298.649 127.081 298.649 118.502V95.6364C298.649 72.992 287.198 61.8819 269.885 61.8819C258.462 61.8819 249.16 66.0697 238.709 78.2445V46.6236L239.495 19.1862L236.321 17.1895L195.811 26.0201V34.3031L208 36.2645V118.497C208 126.745 207.907 138.681 207.73 148.272L197.076 150.569V159.7H207.412H239.885H248.757L248.762 150.569Z" fill="white"/>
<path d="M355.472 105.037C325.192 113.801 317.456 123.622 317.456 137.586C317.456 153.732 328.017 162.677 343.203 162.677C356.608 162.677 362.837 157.266 371.449 148.236C374.266 157.288 381.291 162.509 392.803 162.509C404.722 162.509 411.725 158.401 416.438 147.693L411.234 144.225C408.931 147.485 407.339 148.541 405.274 148.541C402.458 148.541 400.845 146.677 400.845 142.803V98.7994C400.845 72.5193 390.884 61.8818 365.698 61.8818C337.416 61.8818 321.611 72.9434 320.568 89.2751C322.093 95.738 326.797 99.1042 333.8 99.1042C341.369 99.1042 347.713 93.8429 348.208 80.789L349.097 72.2631C351.02 72.0643 352.775 71.9848 354.49 71.9848C367.024 71.9848 370.397 77.1224 370.397 94.5099V100.929C364.853 102.386 359.455 103.866 355.472 105.037ZM358.275 146.809C351.648 146.809 346.479 142.264 346.479 132.43C346.479 123.202 352.271 116.593 361.157 112.838C363.545 111.743 366.79 110.607 370.406 109.485V141.367C364.796 145.382 361.82 146.809 358.275 146.809Z" fill="white"/>
<path d="M482.496 142.277C478.663 145.157 475.445 146.637 471.833 146.637C466.006 146.637 461.828 142.463 461.828 133.252V78.3152H482.412V64.8549H461.925L462.266 37.3203H442.234L432.278 64.7578L417.866 66.6175V78.3108H430.536V115.666C430.536 123.317 430.342 128.569 430.342 135.403C430.342 154.761 440.766 162.673 458.57 162.673C472.925 162.673 482.107 156.965 487.302 147.004L482.496 142.277Z" fill="white"/>
<path d="M544.713 109.132V118.497C544.713 126.749 544.62 138.699 544.444 148.294L533.877 150.573V159.704H544.125H576.491H585.983V150.573L576.178 148.554C575.992 138.92 575.903 126.824 575.903 118.502V92.4557L576.491 63.9846L573.118 61.8818L531.99 74.9313V82.6488L544.125 84.4114C544.514 92.257 544.713 98.3399 544.713 109.132Z" fill="white"/>
<path d="M559.966 47.3479C569.214 47.3479 576.611 40.8276 576.611 31.7274C576.611 22.5742 569.219 16.1113 559.966 16.1113C550.712 16.1113 543.321 22.5742 543.321 31.7274C543.321 40.832 550.717 47.3479 559.966 47.3479Z" fill="white"/>
<path d="M648.479 99.6515L638.903 96.9258C625.405 92.8705 622.483 89.1068 622.483 83.6776C622.483 76.5697 628.341 72.6867 637.117 72.6867C641.555 72.6867 644.84 73.1638 647.908 74.2108L651.879 91.2979H667.648L669.001 69.78C658.859 64.6777 649.473 61.877 637.877 61.877C611.404 61.877 596.877 75.8718 596.877 93.9661C596.877 108.725 605.453 118.784 620.64 123.232L631.232 126.285C644.173 130.088 647.798 134.122 647.798 140.293C647.798 148.187 641.578 151.863 630.282 151.863C624.875 151.863 620.246 150.873 615.582 149.004L612.293 129.58H596.501L596.01 153.661C606.342 159.699 617.337 162.672 630.176 162.672C657.86 162.672 674.594 150.745 674.594 129.996C674.589 115.427 667.127 105.213 648.479 99.6515Z" fill="white"/>
<path d="M105.795 254.107H95.87V260.036L103.492 261.202L92.6913 294.493L81.7626 261.215L89.0573 260.04V254.112H79.4283H66.6693H56.4435V260.04L64.2554 261.189L52.6193 295.292L42.1548 261.1L49.9313 260.04V254.112H40.015H18.1973H14.7887V260.04L20.7084 260.986L41.7834 318.75H51.7439L66.9743 275.882C69.649 284.88 74.1187 297.448 82.3373 318.75H92.2979L112.683 261.193L120.186 260.04V254.112H115.194L105.795 254.107Z" fill="white"/>
<path d="M190.471 290.544V275.012C190.471 259.634 182.694 252.089 170.934 252.089C163.18 252.089 156.853 255.022 149.762 263.283V241.73L150.297 223.096L148.144 221.74L120.632 227.735V233.358L128.913 234.693V290.539C128.913 296.15 128.851 304.243 128.727 310.763L121.494 312.322V318.524H128.51H150.567H156.593V312.322L150.355 311.001C150.231 304.441 150.164 296.22 150.164 290.544V271.124C154.28 267.259 158.396 264.975 162.053 264.975C167.459 264.975 169.215 267.917 169.215 276.562V290.544C169.215 296.331 169.153 304.344 169.029 310.803L162.123 312.327V318.529H168.817H190.873H197.319V312.327L190.661 310.966C190.533 304.481 190.471 296.379 190.471 290.544Z" fill="white"/>
<path d="M233.081 231.617C233.081 225.397 228.058 221.011 221.776 221.011C215.494 221.011 210.471 225.402 210.471 231.617C210.471 237.797 215.494 242.224 221.776 242.224C228.058 242.224 233.081 237.797 233.081 231.617Z" fill="white"/>
<path d="M232.594 290.543V272.855L232.997 253.519L230.706 252.088L202.775 260.95V266.193L211.015 267.39C211.281 272.722 211.413 276.853 211.413 284.181V290.538C211.413 296.153 211.351 304.25 211.228 310.775L204.052 312.321V318.524H211.015H232.997H239.442V312.321L232.784 310.952C232.661 304.401 232.594 296.206 232.594 290.543Z" fill="white"/>
<path d="M280.346 309.654C276.389 309.654 273.551 306.817 273.551 300.562V263.252H287.53V254.112H273.617L273.847 235.412H260.243L253.479 254.045L243.691 255.309V263.252H252.294V288.622C252.294 293.817 252.162 297.386 252.162 302.029C252.162 315.176 259.244 320.547 271.331 320.547C281.079 320.547 287.318 316.669 290.846 309.905L287.587 306.689C284.983 308.646 282.799 309.654 280.346 309.654Z" fill="white"/>
<path d="M355.153 280.237C355.153 264.112 345.18 252.088 327.593 252.088C310.382 252.088 293.237 264.143 293.237 286.359C293.237 307.864 307.053 320.547 326.466 320.547C339.37 320.547 348.964 315.414 354.442 304.993L349.835 300.668C345.803 304.82 340.856 307.824 333.667 307.824C324.392 307.824 316.863 301.379 315.846 287.406H354.411C354.941 285.197 355.153 283.104 355.153 280.237ZM327.222 280.369H315.723C316.368 264.188 321.094 258.953 326.253 258.953C331.094 258.953 335.281 263.286 335.281 272.033C335.281 277.975 333.623 280.369 327.222 280.369Z" fill="white"/>
<path d="M431.429 290.543V275.011C431.429 259.633 423.746 252.088 412.18 252.088C404.439 252.088 397.98 255.012 390.849 263.238L390.049 253.519L387.758 252.088L361.44 260.95V266.193L369.606 267.39C369.875 272.722 370.008 275.505 370.008 282.838V290.543C370.008 296.157 369.946 304.255 369.822 310.775L362.625 312.326V318.528H369.606H391.662H397.728V312.326L391.459 310.992C391.331 304.436 391.269 296.219 391.269 290.538V269.904C395.27 266.732 399.408 264.974 402.724 264.974C408.029 264.974 410.173 268.013 410.173 276.561V290.543C410.173 296.33 410.111 304.343 409.987 310.802L403.082 312.326V318.528H409.775H431.832H438.277V312.326L431.619 310.965C431.491 304.48 431.429 296.378 431.429 290.543Z" fill="white"/>
<path d="M474.065 231.617C474.065 225.397 469.043 221.011 462.761 221.011C456.479 221.011 451.456 225.402 451.456 231.617C451.456 237.797 456.479 242.224 462.761 242.224C469.043 242.224 474.065 237.797 474.065 231.617Z" fill="white"/>
<path d="M473.579 290.543V272.855L473.981 253.519L471.691 252.088L443.759 260.95V266.193L452 267.39C452.265 272.722 452.398 276.853 452.398 284.181V290.538C452.398 296.153 452.336 304.25 452.212 310.775L445.037 312.321V318.524H452H473.981H480.427V312.321L473.769 310.952C473.645 304.401 473.579 296.206 473.579 290.543Z" fill="white"/>
<path d="M555.722 290.543V275.011C555.722 259.633 548.038 252.088 536.472 252.088C528.731 252.088 522.272 255.012 515.141 263.238L514.341 253.519L512.051 252.088L485.733 260.95V266.193L493.898 267.39C494.168 272.722 494.3 275.505 494.3 282.838V290.543C494.3 296.157 494.239 304.255 494.115 310.775L486.917 312.326V318.528H493.898H515.955H522.02V312.326L515.747 310.996C515.619 304.44 515.557 296.224 515.557 290.543V269.908C519.558 266.737 523.696 264.978 527.012 264.978C532.317 264.978 534.461 268.018 534.461 276.566V290.547C534.461 296.334 534.399 304.348 534.275 310.806L527.37 312.33V318.532H534.063H556.119H562.565V312.33L555.907 310.969C555.788 304.48 555.722 296.378 555.722 290.543Z" fill="white"/>
<path d="M619.318 258.171C614.724 254.337 607.744 252.088 598.221 252.088C579.228 252.088 570.267 261.259 570.267 273.655C570.267 281.324 573.75 287.725 581.019 291.444C574.445 297.117 570.638 302.599 570.638 308.739C570.638 313.294 572.972 317.181 578.481 319.465C570.996 322.897 567.393 327.553 567.393 333.19C567.393 341.341 573.87 348.775 595.962 348.775C621.608 348.775 635.141 337.506 635.141 323.931C635.141 312.366 628.049 304.472 607.717 304.472H592.133C586.443 304.472 584.396 302.555 584.396 299.436C584.396 297.006 584.922 295.195 585.974 293.37C589.445 294.373 593.495 294.934 598.172 294.934C617.129 294.934 626.086 285.666 626.086 273.659C626.086 269.838 625.167 266.415 623.509 263.419H636.374V253.135L634.278 251.806L619.318 258.171ZM594.503 323.048H608.508C615.741 323.048 618.323 326.811 618.323 330.69C618.323 336.459 611.51 340.859 598.093 340.859C585.957 340.859 580.311 337.493 580.311 329.559C580.311 326.347 580.939 324.315 582.473 321.762C585.709 322.681 589.816 323.048 594.503 323.048ZM598.07 288.639C591.916 288.639 589.233 282.936 589.233 273.5C589.233 264.06 592.314 258.379 598.256 258.379C604.154 258.379 607.319 263.985 607.319 273.35C607.319 282.826 604.331 288.639 598.07 288.639Z" fill="white"/>
<path d="M702.614 230.619C703.171 229.705 703.936 228.711 704.842 227.765L705.956 229.316C709.639 236.039 713.437 238.818 717.928 238.818C723.884 238.818 727.394 235.037 727.469 229.974C725.847 222.796 718.95 220.41 711.527 220.41C703.887 220.41 696.221 222.756 689.236 229.214C684.095 234.007 679.841 240.89 678.197 254.182L669.235 255.313V263.256H677.839V290.548C677.839 297.315 677.688 304.079 677.547 310.846L670.23 312.331V318.533H677.436H699.488H709.568V312.331L699.369 310.166C699.236 303.628 699.091 297.09 699.091 290.548V263.256H713.07V254.116H698.772C698.445 243.271 699.413 235.867 702.614 230.619Z" fill="white"/>
<path d="M750.808 252.088C731.718 252.088 716.934 265.57 716.934 286.054C716.934 306.539 729.985 320.547 750.808 320.547C771.458 320.547 784.681 306.83 784.681 286.054C784.681 265.279 769.827 252.088 750.808 252.088ZM750.808 313.589C743.265 313.589 739.525 305.355 739.525 286.346C739.525 267.43 743.27 259.05 750.808 259.05C758.27 259.05 762.09 267.43 762.09 286.346C762.094 305.355 758.275 313.589 750.808 313.589Z" fill="white"/>
<path d="M838.786 252.088C832.066 252.088 824.444 257.955 820.81 269.582L819.616 253.515L817.326 252.084L791.008 260.946V266.189L799.173 267.386C799.443 272.718 799.576 275.404 799.576 282.737V290.539C799.576 296.158 799.514 304.269 799.39 310.793L792.078 312.322V318.524H799.178H821.234H831.593V312.322L821.009 310.109C820.894 303.708 820.836 295.964 820.836 290.539V281.682C822.313 275.144 825.85 269.273 829.74 265.487L830.598 266.604C833.768 270.814 836.88 272.785 840.912 272.785C846.248 272.785 850.09 268.835 850.382 261.904C849.255 255.3 844.582 252.088 838.786 252.088Z" fill="white"/>
<path d="M961.906 290.543V275.665C961.906 259.815 955.925 252.093 942.467 252.093C934.85 252.093 928.364 254.995 920.906 264.038C918.306 256.082 912.426 252.093 903.324 252.093C895.308 252.093 888.823 255.843 882.439 263.34L881.634 253.524L879.344 252.093L853.026 260.954V266.198L861.191 267.395C861.554 272.727 861.594 275.51 861.594 282.843V290.548C861.594 296.162 861.532 304.26 861.408 310.78L854.211 312.331V318.533H861.191H883.248H889.313V312.331L883.04 311.001C882.912 304.445 882.85 296.229 882.85 290.548V269.843C886.214 267.033 890.1 264.979 893.867 264.979C899.751 264.979 901.604 268.398 901.604 277.719V290.548C901.604 296.321 901.542 304.317 901.418 310.767L894.508 312.331V318.533H901.201H922.869H928.935V312.331L922.657 310.97C922.533 304.489 922.467 296.388 922.467 290.552V275.02C922.467 273.16 922.36 271.428 922.17 269.803C925.778 266.768 929.54 264.983 933.448 264.983C938.913 264.983 941.03 267.62 941.03 277.648V290.552C941.03 296.335 940.968 304.339 940.845 310.793L934.417 312.335V318.537H940.628H962.295H968.741V312.335L962.079 310.921C961.968 304.436 961.906 296.361 961.906 290.543Z" fill="white"/>
<path d="M1042.12 273.107L1042.52 254.257L1040.41 252.83L1013.88 257.155V262.301L1021.13 263.976L1020.7 301.547C1017.12 305.028 1012.88 307.661 1009.2 307.661C1004.66 307.661 1001.96 304.97 1001.96 296.67V273.111L1002.63 254.261L1000.52 252.834L973.335 256.682V262.31L980.965 264.015L980.514 296.564C980.285 314.155 987.915 320.551 999.352 320.551C1007.92 320.551 1015.18 316.275 1020.98 308.765L1021.77 319.981L1049.11 318.625V312.423L1042.12 310.952L1042.12 273.107Z" fill="white"/>
<path d="M1084.11 290.544V241.73L1084.64 223.096L1082.48 221.74L1054.58 227.735V233.358L1062.86 234.693V290.539C1062.86 297.289 1062.71 304.044 1062.56 310.794L1055.25 312.322V318.524H1062.45H1084.51H1091.72V312.322L1084.4 310.891C1084.26 304.11 1084.11 297.325 1084.11 290.544Z" fill="white"/>
<path d="M1157.23 310.948C1155.31 310.948 1154.22 309.68 1154.22 307.052V277.167C1154.22 259.315 1147.45 252.093 1130.35 252.093C1111.14 252.093 1100.41 259.607 1099.7 270.695C1100.73 275.086 1103.93 277.37 1108.68 277.37C1113.83 277.37 1118.14 273.796 1118.47 264.93L1119.07 259.165C1120.36 259.033 1121.58 258.953 1122.73 258.953C1131.25 258.953 1133.54 262.439 1133.54 274.247V278.607C1129.77 279.601 1126.11 280.608 1123.4 281.403C1102.83 287.358 1097.58 294.024 1097.58 303.509C1097.58 314.473 1104.76 320.552 1115.07 320.552C1124.17 320.552 1128.4 316.876 1134.25 310.745C1136.16 316.89 1140.94 320.441 1148.76 320.441C1156.85 320.441 1161.61 317.654 1164.8 310.378L1161.27 308.023C1159.71 310.228 1158.63 310.948 1157.23 310.948ZM1125.3 309.768C1120.8 309.768 1117.29 306.681 1117.29 300.006C1117.29 293.737 1121.22 289.249 1127.26 286.7C1128.88 285.958 1131.08 285.185 1133.54 284.425V306.062C1129.76 308.766 1127.7 309.768 1125.3 309.768Z" fill="white"/>
<path d="M1182.82 228.49C1176 230.363 1172.83 233.42 1172.83 238.571C1172.83 243.501 1175.3 246.858 1184.99 248.325L1204.14 251.214C1204.63 252.451 1204.96 253.653 1204.96 254.828C1204.96 258.11 1203.17 259.674 1198.52 260.791L1188.49 263.093C1181.06 264.856 1177.91 267.254 1177.91 272.078C1177.91 275.118 1178.6 278.289 1180.2 283.233L1181.75 288.061H1189.38L1189.57 284.31C1189.95 280.679 1190.81 280.061 1195.1 278.771L1200.85 277.017C1211.23 273.894 1215.5 268.487 1215.5 259.073C1215.5 245.211 1198.6 231.671 1182.82 228.49Z" fill="white"/>
<path d="M1186.26 295.933C1179.38 295.933 1173.73 301.468 1173.73 308.306C1173.73 315.145 1179.38 320.547 1186.26 320.547C1193.34 320.547 1198.7 315.145 1198.7 308.306C1198.71 301.468 1193.34 295.933 1186.26 295.933Z" fill="white"/>
<path d="M814.47 101.162C814.47 106.286 812.923 110.571 809.784 114.017C806.645 117.463 802.533 119.186 797.405 119.186C792.277 119.186 788.165 117.463 785.026 114.017C781.887 110.571 780.34 106.286 780.34 101.162C780.34 96.0377 781.887 91.7526 785.026 88.3069C788.165 84.8613 792.277 83.1384 797.405 83.1384C802.533 83.1384 806.645 84.8613 809.784 88.3069C812.923 91.7526 814.47 96.0377 814.47 101.162ZM909.433 83.1384C904.305 83.1384 900.193 84.8613 897.055 88.3069C893.916 91.7526 892.368 96.0377 892.368 101.162C892.368 106.286 893.916 110.571 897.055 114.017C900.193 117.463 904.305 119.186 909.433 119.186C914.518 119.186 918.673 117.463 921.768 114.017C924.907 110.571 926.498 106.286 926.498 101.162C926.498 96.0377 924.907 91.7526 921.768 88.3069C918.673 84.8613 914.518 83.1384 909.433 83.1384ZM1046.93 101.162C1046.93 106.286 1045.38 110.571 1042.24 114.017C1039.1 117.463 1034.99 119.186 1029.86 119.186C1024.73 119.186 1020.62 117.463 1017.48 114.017C1014.34 110.571 1012.8 106.286 1012.8 101.162C1012.8 96.0377 1014.34 91.7526 1017.48 88.3069C1020.62 84.8613 1024.73 83.1384 1029.86 83.1384C1034.99 83.1384 1039.1 84.8613 1042.24 88.3069C1045.38 91.7526 1046.93 96.0377 1046.93 101.162ZM1207.41 30.7903V119.451C1207.41 132.129 1199.58 143.526 1187.65 147.856C1131.85 168.132 1071.38 178.955 1012.8 183.991V140.434C1018.94 147.988 1027.52 151.743 1038.48 151.743C1051.39 151.743 1061.96 146.972 1070.14 137.386C1078.32 127.8 1082.43 115.74 1082.43 101.162C1082.43 86.5841 1078.32 74.5242 1070.14 64.9381C1061.96 55.352 1051.39 50.581 1038.48 50.581C1027.52 50.581 1018.94 54.3359 1012.8 61.89V53.2315H977.296V186.377C900.724 190.176 829.899 184.963 780.34 179.22V140.434C786.485 147.988 795.062 151.743 806.026 151.743C818.935 151.743 829.501 146.972 837.68 137.386C845.859 127.8 849.971 115.74 849.971 101.162C849.971 86.5841 845.859 74.5242 837.68 64.9381C829.501 55.352 818.935 50.581 806.026 50.581C795.062 50.581 786.485 54.3359 780.34 61.89V53.2315H744.839V174.582C741.258 174.052 737.942 173.566 734.892 173.08C720.17 170.783 709.338 158.104 709.338 143.173V52.2155C709.338 33.7501 725.74 19.5698 744.043 22.3086C901.918 46.0309 1035.79 30.1719 1118.46 13.341V36.0031H1087.78V70.5042H1118.46V101.162H1152.99V70.5042H1183.67V36.0031H1152.99V5.65445C1158.91 4.19666 1164.39 2.78304 1169.39 1.45777C1188.58 -3.62242 1207.41 10.9113 1207.41 30.7903ZM961.955 53.2315H926.498V61.89C920.353 54.3359 911.777 50.581 900.768 50.581C887.859 50.581 877.337 55.352 869.158 64.9381C860.979 74.5242 856.868 86.5841 856.868 101.162C856.868 115.74 860.979 127.8 869.158 137.386C877.337 146.972 887.859 151.743 900.768 151.743C911.777 151.743 920.353 147.988 926.498 140.434V149.093H961.955V53.2315ZM1046.93 101.162C1046.93 106.286 1045.38 110.571 1042.24 114.017C1039.1 117.463 1034.99 119.186 1029.86 119.186C1024.73 119.186 1020.62 117.463 1017.48 114.017C1014.34 110.571 1012.8 106.286 1012.8 101.162C1012.8 96.0377 1014.34 91.7526 1017.48 88.3069C1020.62 84.8613 1024.73 83.1384 1029.86 83.1384C1034.99 83.1384 1039.1 84.8613 1042.24 88.3069C1045.38 91.7526 1046.93 96.0377 1046.93 101.162Z" fill="url(#paint0_linear_1215_2314)"/>
</g>
<defs>
<linearGradient id="paint0_linear_1215_2314" x1="692.5" y1="14" x2="1207.41" y2="94.0546" gradientUnits="userSpaceOnUse">
<stop stop-color="#F74EFE"/>
<stop offset="0.37" stop-color="#74C6FB"/>
<stop offset="0.684" stop-color="#60D1F1"/>
<stop offset="1" stop-color="#0CFCC7"/>
</linearGradient>
<clipPath id="clip0_1215_2314">
<rect width="1215" height="348.342" fill="white" transform="translate(0.5 0.4375)"/>
</clipPath>
</defs>
</svg>
