<svg width="62" height="33" viewBox="0 0 62 33" fill="none" xmlns="http://www.w3.org/2000/svg">
<path d="M45.1361 0.555664H16.9761C8.17614 0.555664 0.976135 7.75566 0.976135 16.5557C0.976135 25.3557 8.17614 32.5557 16.9761 32.5557H45.1361C53.9361 32.5557 61.1361 25.3557 61.1361 16.5557C61.1361 7.75566 53.9361 0.555664 45.1361 0.555664Z" fill="white"/>
<path d="M45.1361 1.85166C47.1121 1.85166 49.0321 2.24366 50.8401 3.01166C52.5921 3.75566 54.1601 4.81966 55.5201 6.17166C56.8721 7.52366 57.9361 9.09966 58.6801 10.8517C59.4481 12.6597 59.8401 14.5797 59.8401 16.5557C59.8401 18.5317 59.4481 20.4517 58.6801 22.2597C57.9361 24.0117 56.8721 25.5797 55.5201 26.9397C54.1681 28.2917 52.5921 29.3557 50.8401 30.0997C49.0321 30.8677 47.1121 31.2597 45.1361 31.2597H16.9761C15.0001 31.2597 13.0801 30.8677 11.2721 30.0997C9.52013 29.3557 7.95214 28.2917 6.59213 26.9397C5.24013 25.5877 4.17614 24.0117 3.43213 22.2597C2.66413 20.4517 2.27214 18.5317 2.27214 16.5557C2.27214 14.5797 2.66413 12.6597 3.43213 10.8517C4.17614 9.09966 5.24013 7.53166 6.59213 6.17166C7.94413 4.81966 9.52013 3.75566 11.2721 3.01166C13.0801 2.24366 15.0001 1.85166 16.9761 1.85166H45.1361ZM45.1361 0.555664H16.9761C8.17614 0.555664 0.976135 7.75566 0.976135 16.5557C0.976135 25.3557 8.17614 32.5557 16.9761 32.5557H45.1361C53.9361 32.5557 61.1361 25.3557 61.1361 16.5557C61.1361 7.75566 53.9361 0.555664 45.1361 0.555664Z" fill="#3C4043"/>
<path d="M29.6641 17.6901V22.5301H28.1281V10.5781H32.2001C33.2321 10.5781 34.1121 10.9221 34.8321 11.6101C35.5681 12.2981 35.9361 13.1381 35.9361 14.1301C35.9361 15.1461 35.5681 15.9861 34.8321 16.6661C34.1201 17.3461 33.2401 17.6821 32.2001 17.6821H29.6641V17.6901ZM29.6641 12.0501V16.2181H32.2321C32.8401 16.2181 33.3521 16.0101 33.7521 15.6021C34.1601 15.1941 34.3681 14.6981 34.3681 14.1381C34.3681 13.5861 34.1601 13.0981 33.7521 12.6901C33.3521 12.2661 32.8481 12.0581 32.2321 12.0581H29.6641V12.0501Z" fill="#3C4043"/>
<path d="M39.9521 14.082C41.0881 14.082 41.9841 14.386 42.6401 14.994C43.2961 15.602 43.6241 16.434 43.6241 17.49V22.53H42.1601V21.394H42.0961C41.4641 22.33 40.6161 22.794 39.5601 22.794C38.6561 22.794 37.9041 22.53 37.2961 21.994C36.6881 21.458 36.3841 20.794 36.3841 19.994C36.3841 19.146 36.7041 18.474 37.3441 17.978C37.9841 17.474 38.8401 17.226 39.9041 17.226C40.8161 17.226 41.5681 17.394 42.1521 17.73V17.378C42.1521 16.842 41.9441 16.394 41.5201 16.018C41.0961 15.642 40.6001 15.458 40.0321 15.458C39.1761 15.458 38.4961 15.818 38.0001 16.546L36.6481 15.698C37.3921 14.618 38.4961 14.082 39.9521 14.082ZM37.9681 20.018C37.9681 20.418 38.1361 20.754 38.4801 21.018C38.8161 21.282 39.2161 21.418 39.6721 21.418C40.3201 21.418 40.8961 21.178 41.4001 20.698C41.9041 20.218 42.1601 19.658 42.1601 19.01C41.6801 18.634 41.0161 18.442 40.1601 18.442C39.5361 18.442 39.0161 18.594 38.6001 18.89C38.1761 19.202 37.9681 19.578 37.9681 20.018Z" fill="#3C4043"/>
<path d="M51.9761 14.3467L46.8561 26.1227H45.2721L47.1761 22.0027L43.8001 14.3467H45.4721L47.9041 20.2187H47.9361L50.3041 14.3467H51.9761Z" fill="#3C4043"/>
<path d="M23.5545 16.7152C23.5545 16.2144 23.5097 15.7352 23.4265 15.2744H16.9881V17.9144L20.6961 17.9152C20.5457 18.7936 20.0617 19.5424 19.3201 20.0416V21.7544H21.5273C22.8161 20.5616 23.5545 18.7984 23.5545 16.7152Z" fill="#4285F4"/>
<path d="M19.3209 20.0411C18.7065 20.4555 17.9153 20.6979 16.9897 20.6979C15.2017 20.6979 13.6849 19.4931 13.1417 17.8691H10.8649V19.6355C11.9929 21.8739 14.3113 23.4099 16.9897 23.4099C18.8409 23.4099 20.3961 22.8011 21.5281 21.7531L19.3209 20.0411Z" fill="#34A853"/>
<path d="M12.9273 16.5581C12.9273 16.1021 13.0033 15.6613 13.1417 15.2469V13.4805H10.8649C10.3985 14.4061 10.1361 15.4509 10.1361 16.5581C10.1361 17.6653 10.3993 18.7101 10.8649 19.6357L13.1417 17.8693C13.0033 17.4549 12.9273 17.0141 12.9273 16.5581Z" fill="#FABB05"/>
<path d="M16.9897 12.419C18.0001 12.419 18.9049 12.767 19.6193 13.447L21.5753 11.4926C20.3873 10.3862 18.8385 9.70703 16.9897 9.70703C14.3121 9.70703 11.9929 11.243 10.8649 13.4814L13.1417 15.2478C13.6849 13.6238 15.2017 12.419 16.9897 12.419Z" fill="#E94235"/>
</svg>
