<svg width="99" height="25" viewBox="0 0 99 25" fill="none" xmlns="http://www.w3.org/2000/svg">
<g clip-path="url(#clip0_500_890)">
<path fill-rule="evenodd" clip-rule="evenodd" d="M76.7599 11.1285C76.4651 13.0648 74.9863 13.0648 73.556 13.0648H72.7422L73.3131 9.44975C73.3475 9.23133 73.5359 9.07036 73.7572 9.07036H74.1303C75.1036 9.07036 76.0234 9.07036 76.4976 9.62503C76.7812 9.95691 76.867 10.4488 76.7599 11.1285ZM76.1373 6.07715H70.7431C70.3744 6.07715 70.0605 6.34551 70.003 6.70988L67.8219 20.5409C67.7788 20.8136 67.9897 21.0604 68.266 21.0604H71.0336C71.2917 21.0604 71.5116 20.8725 71.5516 20.6175L72.1703 16.6965C72.2277 16.3322 72.5417 16.0638 72.9104 16.0638H74.6173C78.1703 16.0638 80.2207 14.3443 80.7567 10.9365C80.9979 9.44612 80.7664 8.27497 80.0685 7.45509C79.3014 6.55375 77.9419 6.07715 76.1373 6.07715Z" fill="#2790C3"/>
<path fill-rule="evenodd" clip-rule="evenodd" d="M38.2878 11.1285C37.993 13.0648 36.5143 13.0648 35.0842 13.0648H34.2704L34.841 9.44975C34.8757 9.23133 35.0641 9.07036 35.2852 9.07036H35.6583C36.6318 9.07036 37.5516 9.07036 38.0255 9.62503C38.3094 9.95691 38.3952 10.4488 38.2878 11.1285ZM37.6655 6.07715H32.2713C31.9026 6.07715 31.5887 6.34551 31.5312 6.70988L29.3499 20.5409C29.307 20.8136 29.5179 21.0604 29.794 21.0604H32.3695C32.7383 21.0604 33.0524 20.7921 33.1099 20.4279L33.6985 16.6965C33.7557 16.3322 34.0699 16.0638 34.4386 16.0638H36.1455C39.6983 16.0638 41.7489 14.3443 42.2849 10.9365C42.5261 9.44612 42.2946 8.27497 41.5967 7.45509C40.8294 6.55375 39.4699 6.07715 37.6655 6.07715Z" fill="#27346A"/>
<path fill-rule="evenodd" clip-rule="evenodd" d="M50.1879 16.0935C49.9385 17.5694 48.7668 18.5602 47.2725 18.5602C46.5234 18.5602 45.9237 18.3192 45.5382 17.863C45.1562 17.4106 45.0124 16.7663 45.1334 16.0487C45.3661 14.5862 46.5564 13.5634 48.0279 13.5634C48.7615 13.5634 49.3569 13.8068 49.7501 14.2671C50.1457 14.7309 50.3011 15.3796 50.1879 16.0935ZM53.7874 11.0664H51.2046C50.9833 11.0664 50.7949 11.2271 50.7605 11.446L50.6468 12.1682L50.4662 11.9064C49.9069 11.0945 48.6604 10.8232 47.4156 10.8232C44.562 10.8232 42.1244 12.9857 41.65 16.0186C41.4029 17.5316 41.7535 18.9774 42.6114 19.9866C43.3996 20.9139 44.5244 21.2998 45.8645 21.2998C48.1646 21.2998 49.4403 19.8223 49.4403 19.8223L49.3249 20.5401C49.2817 20.8131 49.4926 21.0601 49.769 21.0601H52.0951C52.4638 21.0601 52.7777 20.792 52.8352 20.4276L54.2316 11.5859C54.2747 11.3129 54.0638 11.0664 53.7874 11.0664Z" fill="#27346A"/>
<path fill-rule="evenodd" clip-rule="evenodd" d="M88.6597 16.0935C88.4102 17.5694 87.2388 18.5602 85.7445 18.5602C84.9952 18.5602 84.3957 18.3192 84.01 17.863C83.6279 17.4106 83.4842 16.7663 83.6054 16.0487C83.8379 14.5862 85.0282 13.5634 86.4999 13.5634C87.2333 13.5634 87.8289 13.8068 88.2219 14.2671C88.6175 14.7309 88.7729 15.3796 88.6597 16.0935ZM92.2592 11.0664H89.6764C89.4551 11.0664 89.2667 11.2271 89.2323 11.446L89.1186 12.1682L88.9382 11.9064C88.3787 11.0945 87.1322 10.8232 85.8873 10.8232C83.034 10.8232 80.5962 12.9857 80.1217 16.0186C79.875 17.5316 80.2255 18.9774 81.0832 19.9866C81.8716 20.9139 82.9962 21.2998 84.3363 21.2998C86.6364 21.2998 87.9121 19.8223 87.9121 19.8223L87.7969 20.5401C87.7535 20.8131 87.9644 21.0601 88.241 21.0601H90.5668C90.9356 21.0601 91.2495 20.792 91.3072 20.4276L92.7033 11.5859C92.7465 11.3129 92.5356 11.0664 92.2592 11.0664Z" fill="#2790C3"/>
<mask id="mask0_500_890" style="mask-type:alpha" maskUnits="userSpaceOnUse" x="0" y="0" width="99" height="25">
<path d="M0.605637 24.5559H98.689V0.754883H0.605637V24.5559Z" fill="white"/>
</mask>
<g mask="url(#mask0_500_890)">
<path fill-rule="evenodd" clip-rule="evenodd" d="M67.5438 11.0674H64.9477C64.6995 11.0674 64.4672 11.1905 64.3278 11.3959L60.7468 16.6703L59.2289 11.6019C59.1342 11.2848 58.8423 11.0674 58.5111 11.0674H55.9591C55.651 11.0674 55.434 11.3704 55.5334 11.662L58.3921 20.0528L55.7034 23.8468C55.4922 24.1445 55.7053 24.5564 56.0701 24.5564H58.6639C58.9097 24.5564 59.1397 24.4359 59.2798 24.2337L67.9135 11.7733C68.1201 11.4751 67.9068 11.0674 67.5438 11.0674Z" fill="#27346A"/>
<path fill-rule="evenodd" clip-rule="evenodd" d="M95.3036 6.45703L93.0898 20.5409C93.0469 20.8139 93.2578 21.0604 93.5339 21.0604H95.7606C96.1293 21.0604 96.4432 20.7921 96.5007 20.4279L98.6835 6.59691C98.7266 6.32394 98.5157 6.07715 98.2394 6.07715H95.7477C95.5264 6.07715 95.338 6.23836 95.3036 6.45703Z" fill="#2790C3"/>
<path fill-rule="evenodd" clip-rule="evenodd" d="M10.8098 23.5751L11.5349 18.9773L11.5816 18.7225C11.6166 18.501 11.73 18.2983 11.9009 18.1523C12.0718 18.0064 12.2898 17.9259 12.5145 17.9259H13.0903C14.05 17.9259 14.9317 17.8234 15.7111 17.6212C16.5426 17.4057 17.2823 17.0699 17.9092 16.6241C18.5739 16.1514 19.1322 15.5402 19.5688 14.8081C20.0294 14.0357 20.3676 13.1058 20.5741 12.0445C20.7567 11.1073 20.7909 10.2682 20.6762 9.55041C20.5547 8.7921 20.2626 8.14507 19.8081 7.62677C19.5324 7.31283 19.1797 7.04083 18.7598 6.81829L18.7499 6.81295L18.7496 6.80083C18.8963 5.86532 18.8907 5.08495 18.7329 4.41319C18.5744 3.73998 18.2534 3.13416 17.7509 2.56156C16.7096 1.37513 14.8158 0.773438 12.1223 0.773438H4.72468C4.47741 0.773438 4.23741 0.861922 4.04928 1.02265C3.86116 1.18338 3.73656 1.40665 3.69777 1.65101L0.617527 21.1839C0.589405 21.362 0.640557 21.5431 0.75789 21.6799C0.875224 21.8173 1.04589 21.8961 1.22625 21.8961H5.81559L5.81147 21.9179L5.49631 23.9165C5.47207 24.0719 5.51668 24.2294 5.61874 24.3487C5.7208 24.4682 5.86941 24.5371 6.0265 24.5371H9.87571C10.0917 24.5371 10.3009 24.4597 10.465 24.3194C10.6292 24.179 10.7383 23.9843 10.772 23.7713L10.8098 23.5751Z" fill="#27346A"/>
<path fill-rule="evenodd" clip-rule="evenodd" d="M8.17267 6.8264C8.2214 6.51682 8.41995 6.26349 8.68734 6.13525C8.80904 6.07706 8.94479 6.04458 9.0871 6.04458H14.8856C15.5727 6.04458 16.2132 6.08967 16.7989 6.18397C16.9661 6.21088 17.1288 6.24191 17.2871 6.27706C17.4454 6.31222 17.5989 6.35125 17.7475 6.39488C17.8219 6.41646 17.8949 6.43925 17.9669 6.46325C18.2544 6.55876 18.522 6.67125 18.7683 6.80167C19.0587 4.95028 18.7664 3.6904 17.7649 2.54931C16.6624 1.29306 14.6706 0.754883 12.1222 0.754883H4.72467C4.20395 0.754883 3.76055 1.13379 3.67934 1.64822L0.599097 21.1811C0.538249 21.5665 0.836188 21.9149 1.22625 21.9149H5.79304L8.17267 6.8264Z" fill="#27346A"/>
</g>
<path fill-rule="evenodd" clip-rule="evenodd" d="M18.7683 6.80176C18.7462 6.94309 18.7217 7.08685 18.6926 7.23497C17.7174 12.2437 14.3797 13.9753 10.1169 13.9753H7.9462C7.42547 13.9753 6.98571 14.3545 6.9045 14.8689L5.47783 23.914C5.42474 24.251 5.68535 24.5559 6.02644 24.5559H9.8759C10.3314 24.5559 10.7193 24.2245 10.7903 23.7744L10.8281 23.5787L11.5532 18.9804L11.6 18.7264C11.671 18.2762 12.0589 17.9448 12.5144 17.9448H13.0902C16.8194 17.9448 19.7394 16.4296 20.5927 12.0481C20.9491 10.2173 20.7649 8.68903 19.8221 7.61461C19.537 7.28976 19.1821 7.02091 18.7683 6.80176Z" fill="#2790C3"/>
<path fill-rule="evenodd" clip-rule="evenodd" d="M17.7475 6.39523C17.5989 6.35159 17.4454 6.31256 17.2871 6.27741C17.1288 6.24226 16.9662 6.21122 16.7989 6.18432C16.2132 6.09001 15.5727 6.04492 14.8857 6.04492H9.08713C8.94483 6.04492 8.80907 6.07741 8.68737 6.13559C8.41998 6.26383 8.22144 6.51716 8.17271 6.82674L6.94022 14.641L6.90459 14.8692C6.9858 14.3547 7.42556 13.9756 7.94628 13.9756H10.117C14.3797 13.9756 17.7174 12.244 18.6927 7.23523C18.7218 7.0871 18.7463 6.94335 18.7683 6.80201C18.522 6.67159 18.2544 6.5591 17.9669 6.46359C17.8949 6.43959 17.8219 6.4168 17.7475 6.39523Z" fill="#1F264F"/>
</g>
<defs>
<clipPath id="clip0_500_890">
<rect width="98.4" height="24" fill="white" transform="translate(0.591049 0.555664)"/>
</clipPath>
</defs>
</svg>
