<svg width="75" height="25" viewBox="0 0 75 25" fill="none" xmlns="http://www.w3.org/2000/svg">
<g clip-path="url(#clip0_500_878)">
<path d="M32.6346 24.2092H26.6273L30.3847 0.976562H36.3916L32.6346 24.2092Z" fill="#00579F"/>
<path d="M54.4114 1.54477C53.2265 1.07469 51.3471 0.555664 49.0234 0.555664C43.091 0.555664 38.9135 3.71909 38.8879 8.24184C38.8386 11.5787 41.8789 13.4321 44.1527 14.5447C46.4768 15.6816 47.2669 16.4237 47.2669 17.4371C47.2432 18.9936 45.3889 19.711 43.6593 19.711C41.2609 19.711 39.9759 19.3411 38.0229 18.4752L37.2319 18.104L36.3913 23.3192C37.8002 23.9611 40.396 24.5307 43.091 24.5557C49.3942 24.5557 53.4978 21.4412 53.5464 16.6215C53.5704 13.9767 51.965 11.9502 48.504 10.2943C46.4029 9.23128 45.1162 8.5145 45.1162 7.42684C45.1408 6.43806 46.2045 5.42531 48.5763 5.42531C50.5292 5.3757 51.9641 5.84513 53.0511 6.31488L53.5944 6.56158L54.4114 1.54477Z" fill="#00579F"/>
<path d="M62.3954 15.9787C62.8901 14.644 64.7938 9.4784 64.7938 9.4784C64.7688 9.528 65.2875 8.11908 65.5841 7.25414L66.004 9.25601C66.004 9.25601 67.1415 14.8171 67.3886 15.9787C66.4497 15.9787 63.582 15.9787 62.3954 15.9787ZM69.8106 0.976562H65.164C63.7311 0.976562 62.6425 1.39638 62.0242 2.90418L53.1013 24.2089H59.4045C59.4045 24.2089 60.4422 21.3414 60.6652 20.7238C61.3567 20.7238 67.4884 20.7238 68.378 20.7238C68.5505 21.5395 69.0948 24.2089 69.0948 24.2089H74.6569L69.8106 0.976562Z" fill="#00579F"/>
<path d="M21.6099 0.976562L15.7269 16.819L15.084 13.606C13.9963 9.89855 10.5852 5.87051 6.77859 3.86767L12.1673 24.1846H18.5197L27.9621 0.976562H21.6099Z" fill="#00579F"/>
<path d="M10.2639 0.976562H0.598877L0.5 1.44598C8.03934 3.37393 13.0325 8.02118 15.084 13.6069L12.9829 2.92948C12.637 1.44566 11.574 1.02551 10.2639 0.976562Z" fill="#FAA61A"/>
</g>
<defs>
<clipPath id="clip0_500_878">
<rect width="74.1569" height="24" fill="white" transform="translate(0.5 0.555664)"/>
</clipPath>
</defs>
</svg>
