<svg width="36" height="34" viewBox="0 0 36 34" fill="none" xmlns="http://www.w3.org/2000/svg">
<path d="M16.5283 1.33838C17.2528 -0.179859 19.4139 -0.179861 20.1383 1.33838L23.9226 9.26885C24.2142 9.87987 24.795 10.3019 25.4662 10.3904L34.1779 11.5387C35.8457 11.7586 36.5136 13.814 35.2935 14.9721L28.9205 21.0217C28.4295 21.4878 28.2076 22.1707 28.3309 22.8364L29.9308 31.4766C30.2371 33.1307 28.4887 34.401 27.0102 33.5986L19.2873 29.407C18.6923 29.0841 17.9743 29.0841 17.3793 29.407L9.65637 33.5986C8.17787 34.401 6.42949 33.1307 6.73578 31.4766L8.33568 22.8364C8.45895 22.1707 8.23707 21.4878 7.74606 21.0217L1.37315 14.9721C0.153085 13.8139 0.820904 11.7586 2.48872 11.5387L11.2004 10.3904C11.8716 10.3019 12.4525 9.87987 12.7441 9.26885L16.5283 1.33838Z" fill="#E63189"/>
</svg>
