<svg width="82" height="81" viewBox="0 0 82 81" fill="none" xmlns="http://www.w3.org/2000/svg">
<path d="M80.6658 67.9347C80.1706 68.9272 79.6406 69.9046 79.1064 70.8754C78.2506 72.4348 76.954 72.7128 75.5444 71.6269C70.6664 67.8673 65.784 64.1186 60.932 60.3287C59.4833 59.1972 57.8913 58.5955 56.067 58.5521C55.335 58.5347 54.6009 58.4739 53.8733 58.3979C53.4672 58.3566 53.3738 58.5021 53.3738 58.8887C53.3847 64.2642 53.3912 69.6396 53.3695 75.015C53.3673 75.7035 53.8147 75.4863 54.1361 75.4885C56.6034 75.4993 58.4647 76.5527 59.6636 78.7137C60.3 79.8627 59.972 80.3818 58.658 80.3818H21.1126C19.8442 80.3818 19.5206 79.8757 20.1135 78.768C21.2494 76.6504 23.0412 75.5211 25.4412 75.5059C30.7905 75.4733 36.1377 75.4755 41.4849 75.5167C42.2342 75.5211 42.3471 75.2995 42.345 74.6219C42.3167 69.2182 42.3189 63.8168 42.3428 58.4153C42.345 57.7963 42.1973 57.5943 41.5522 57.5617C39.1936 57.4401 36.837 57.2729 34.4871 57.0665C32.578 56.9015 30.8817 56.1565 29.3592 54.9967C22.9261 50.1013 16.4865 45.2167 10.0533 40.3256C8.66331 39.2701 8.57209 37.993 9.79921 36.7442C10.833 35.693 11.9885 34.809 13.3546 34.2183C15.4657 33.3061 17.5224 33.3843 19.5075 34.5636C22.4353 36.3054 25.0003 38.5316 27.587 40.7209C29.659 42.4736 31.7027 44.2611 33.7356 46.0572C34.4371 46.6762 35.2255 47.0433 36.1464 47.1128C39.2326 47.3365 42.3189 47.5385 45.403 47.773C45.8547 47.8078 45.9546 47.6644 45.9503 47.2452C45.9351 45.2102 45.9221 43.173 45.9568 41.1379C45.9677 40.5645 45.6549 40.634 45.2987 40.634C41.878 40.6384 38.4573 40.6427 35.0366 40.634C33.6552 40.6297 32.7539 39.7327 32.8386 38.4838C32.8994 37.5869 33.5618 36.8441 34.4567 36.7029C34.7499 36.6573 35.0518 36.6573 35.3493 36.6573C42.1365 36.6529 48.9236 36.6551 55.7086 36.6551C56.143 36.6551 56.5795 36.6356 56.9944 36.8028C57.811 37.1351 58.3453 38.0495 58.2171 38.8965C58.0738 39.8521 57.3223 40.5732 56.3406 40.621C55.5001 40.6623 54.6574 40.6514 53.8169 40.6297C53.4585 40.6188 53.3564 40.7296 53.3586 41.0858C53.3738 43.3402 53.376 45.5924 53.3586 47.8469C53.3564 48.2074 53.4759 48.303 53.8191 48.3116C54.4967 48.329 55.183 48.3399 55.8476 48.455C57.0443 48.6635 57.9348 48.2573 58.8231 47.4451C62.4957 44.096 65.4604 40.2843 66.8634 35.4432C69.4349 26.5558 65.7362 16.9778 57.7719 11.7609C53.5845 9.01783 48.2742 7.48231 43.824 7.769C44.4387 8.96136 45.0099 10.0603 45.5724 11.1658C46.2196 12.4342 45.9351 13.6157 44.8557 14.1891C43.7784 14.7581 42.6186 14.3281 41.9562 13.0858C40.2752 9.9322 38.5985 6.77644 36.937 3.61417C36.3983 2.58687 36.5829 1.54436 37.3518 0.87325C38.0577 0.260778 39.1327 0.21734 39.9146 0.762484C40.3077 1.03614 40.6096 1.41622 40.7312 1.85277C41.2134 3.57942 42.3189 3.87263 44.0282 3.86177C52.4703 3.80964 59.7201 6.81988 65.2845 13.2074C73.5289 22.6747 73.6462 35.7364 65.8144 45.6923C64.7567 47.0367 63.5926 48.2856 62.3937 49.4497C67.9841 53.1941 73.3248 57.2164 78.47 61.4994C79.0086 61.9489 79.5168 62.4485 79.986 62.9719C81.3195 64.464 81.5671 66.1342 80.6658 67.9347Z" fill="white"/>
<path d="M12.8833 26.3127C12.7573 29.3143 11.4477 31.332 9.05208 32.646C8.03129 33.2063 6.86933 32.8849 6.3155 31.8554C4.53238 28.5476 2.77315 25.2246 1.05084 21.8821C0.468773 20.7549 0.93573 19.5842 2.08031 19.0174C4.14795 17.9901 6.246 17.9705 8.2159 19.1694C10.959 20.8396 12.614 23.2721 12.8833 26.3127Z" fill="white"/>
</svg>
