<svg width="74" height="19" viewBox="0 0 74 19" fill="none" xmlns="http://www.w3.org/2000/svg">
<path d="M2.79888 8.42469C2.79888 8.78407 2.99596 9.06727 3.39095 9.27512C3.78594 9.48296 4.26622 9.66266 4.83345 9.81254C5.40068 9.96407 5.97122 10.1396 6.54591 10.3408C7.11976 10.5412 7.60418 10.8824 7.99917 11.3635C8.39416 11.8446 8.59124 12.4516 8.59124 13.1836C8.59124 14.217 8.19294 15.0286 7.39634 15.6173C6.59973 16.2061 5.59859 16.5 4.39292 16.5C3.3305 16.5 2.4188 16.2773 1.6578 15.8326C0.896802 15.3879 0.344478 14.7694 0 13.9794L2.00228 12.8168C2.37574 13.8502 3.17234 14.3669 4.39292 14.3669C5.6135 14.3669 6.22296 13.9661 6.22296 13.1613C6.22296 12.8168 6.02505 12.5369 5.63089 12.3216C5.2359 12.1063 4.75479 11.9233 4.18839 11.7726C3.62116 11.6219 3.05062 11.4463 2.47676 11.2451C1.90291 11.0447 1.41849 10.7102 1.0235 10.244C0.628506 9.77693 0.431425 9.18569 0.431425 8.46692C0.431425 7.47737 0.808198 6.67994 1.56174 6.07711C2.31529 5.47427 3.25184 5.17285 4.37222 5.17285C5.26157 5.17285 6.05486 5.36993 6.75127 5.76492C7.44685 6.15991 7.98178 6.70892 8.35524 7.41278L6.3952 8.51081C6.02174 7.69267 5.34769 7.28361 4.37139 7.28361C3.92589 7.28361 3.55326 7.38049 3.25184 7.57426C2.95042 7.76803 2.79888 8.05123 2.79888 8.42469Z" fill="white"/>
<path d="M21.2955 5.17285C22.5161 5.17285 23.499 5.56784 24.2459 6.35699C24.992 7.14697 25.3655 8.20939 25.3655 9.54424V16.2193H23.0402V9.69495C23.0402 8.94886 22.8531 8.37086 22.4805 7.9618C22.1078 7.55273 21.5977 7.3482 20.951 7.3482C20.2331 7.3482 19.6625 7.58502 19.2394 8.05951C18.8154 8.53234 18.6034 9.24365 18.6034 10.191V16.2202H16.2782V9.69578C16.2782 8.94969 16.1018 8.37169 15.7507 7.96262C15.3988 7.55356 14.9003 7.34902 14.2544 7.34902C13.5505 7.34902 12.9767 7.58916 12.532 8.07027C12.0873 8.55138 11.8646 9.25856 11.8646 10.191V16.2202H9.53937V5.45274H11.8646V6.74453C12.5535 5.69702 13.5804 5.17285 14.9434 5.17285C16.3213 5.17285 17.3406 5.74008 18.0014 6.87371C18.7185 5.74008 19.8174 5.17285 21.2955 5.17285Z" fill="white"/>
<path d="M28.9726 3.39646C28.6778 3.69125 28.33 3.83782 27.9284 3.83782C27.5268 3.83782 27.1781 3.69042 26.8842 3.39646C26.5894 3.10249 26.4428 2.7547 26.4428 2.35226C26.4428 1.94982 26.5861 1.60285 26.8734 1.30806C27.1607 1.01327 27.5119 0.866699 27.9284 0.866699C28.3449 0.866699 28.696 1.0141 28.9833 1.30806C29.2707 1.60203 29.4139 1.94982 29.4139 2.35226C29.4139 2.7547 29.2665 3.10249 28.9726 3.39646ZM26.7658 16.2191V5.45256H29.091V16.2191H26.7658Z" fill="white"/>
<path d="M30.6842 16.2193V0.5H33.0094V16.2193H30.6842Z" fill="white"/>
<path d="M36.4327 11.8272C36.6049 12.6445 36.9999 13.273 37.6168 13.7111C38.2337 14.1491 38.9873 14.3678 39.8775 14.3678C41.1113 14.3678 42.0379 13.9231 42.6548 13.0329L44.5718 14.1525C43.5094 15.7175 41.9377 16.4992 39.8559 16.4992C38.1046 16.4992 36.6911 15.9643 35.6146 14.8952C34.5381 13.8262 33.9998 12.4723 33.9998 10.836C33.9998 9.22792 34.5306 7.8823 35.5939 6.79836C36.6554 5.71441 38.0193 5.17285 39.6845 5.17285C41.2628 5.17285 42.5596 5.72518 43.5715 6.83065C44.5834 7.93613 45.0894 9.2776 45.0894 10.8576C45.0894 11.1018 45.0604 11.4248 45.0024 11.8264H36.4327V11.8272ZM36.4112 9.93178H42.7418C42.5844 9.05568 42.2217 8.39571 41.6537 7.9502C41.0865 7.50553 40.4223 7.28278 39.6622 7.28278C38.801 7.28278 38.083 7.51961 37.5084 7.99409C36.9345 8.46692 36.5693 9.11364 36.4112 9.93178Z" fill="white"/>
<path d="M52.1304 5.17291C53.6077 5.17291 54.8721 5.71861 55.9197 6.80918C56.968 7.90058 57.4922 9.24288 57.4922 10.8361C57.4922 12.4152 56.968 13.7542 55.9197 14.8514C54.8721 15.9494 53.6085 16.4993 52.1304 16.4993C50.4933 16.4993 49.2371 15.8898 48.3627 14.6692V16.2194H46.0366V1.146H48.3627V6.98142C49.2371 5.77574 50.4933 5.17291 52.1304 5.17291ZM49.3307 13.3013C49.9758 13.9546 50.7873 14.2817 51.7636 14.2817C52.7399 14.2817 53.5505 13.9546 54.1964 13.3013C54.8423 12.6487 55.1661 11.8265 55.1661 10.8361C55.1661 9.84572 54.8423 9.02344 54.1964 8.37092C53.5514 7.71757 52.7399 7.39048 51.7636 7.39048C50.7873 7.39048 49.9766 7.71757 49.3307 8.37092C48.6848 9.02344 48.3618 9.84572 48.3618 10.8361C48.3618 11.8265 48.6848 12.6487 49.3307 13.3013Z" fill="white"/>
<path d="M60.3333 11.8272C60.5055 12.6445 60.9005 13.273 61.5174 13.7111C62.1344 14.1491 62.8879 14.3678 63.7789 14.3678C65.0127 14.3678 65.9393 13.9231 66.5563 13.0329L68.4732 14.1525C67.4108 15.7175 65.8391 16.4992 63.7574 16.4992C62.006 16.4992 60.5925 15.9643 59.5152 14.8952C58.4387 13.8262 57.9012 12.4723 57.9012 10.836C57.9012 9.22792 58.432 7.8823 59.4945 6.79836C60.556 5.71441 61.9199 5.17285 63.5851 5.17285C65.1634 5.17285 66.4602 5.72518 67.4721 6.83065C68.484 7.93613 68.99 9.2776 68.99 10.8576C68.99 11.1018 68.961 11.4248 68.903 11.8264H60.3333V11.8272ZM60.3126 9.93178H66.6432C66.4859 9.05568 66.1232 8.39571 65.5551 7.9502C64.9879 7.50553 64.3238 7.28278 63.5636 7.28278C62.7024 7.28278 61.9845 7.51961 61.4098 7.99409C60.8359 8.46692 60.4691 9.11364 60.3126 9.93178Z" fill="white"/>
<path d="M73.5054 9.64557C71.027 9.64557 69.0156 7.71036 68.9261 5.24022L71.2439 5.15576C71.2878 6.37303 72.2807 7.32614 73.5054 7.32614V9.64557Z" fill="#E63189"/>
</svg>
