<svg width="928" height="289" viewBox="0 0 928 289" fill="none" xmlns="http://www.w3.org/2000/svg">
<path d="M328.184 162.701C328.184 164.138 328.972 165.271 330.552 166.102C332.132 166.934 334.053 167.653 336.322 168.252C338.591 168.858 340.873 169.56 343.172 170.365C345.467 171.167 347.405 172.532 348.985 174.456C350.565 176.38 351.353 178.808 351.353 181.736C351.353 185.87 349.76 189.116 346.574 191.471C343.387 193.826 339.383 195.002 334.56 195.002C330.31 195.002 326.663 194.111 323.619 192.332C320.575 190.554 318.366 188.079 316.988 184.92L324.997 180.269C326.491 184.403 329.678 186.47 334.56 186.47C339.442 186.47 341.88 184.867 341.88 181.647C341.88 180.269 341.088 179.15 339.512 178.288C337.932 177.427 336.007 176.695 333.742 176.092C331.473 175.489 329.191 174.787 326.895 173.982C324.6 173.181 322.662 171.843 321.082 169.978C319.502 168.11 318.714 165.745 318.714 162.87C318.714 158.911 320.221 155.722 323.235 153.31C326.249 150.899 329.996 149.693 334.477 149.693C338.035 149.693 341.208 150.482 343.993 152.062C346.776 153.642 348.915 155.838 350.409 158.653L342.569 163.045C341.075 159.773 338.379 158.136 334.474 158.136C332.692 158.136 331.201 158.524 329.996 159.299C328.79 160.074 328.184 161.207 328.184 162.701Z" fill="black"/>
<path d="M402.169 149.693C407.051 149.693 410.983 151.273 413.971 154.43C416.955 157.59 418.449 161.84 418.449 167.179V193.879H409.148V167.782C409.148 164.797 408.399 162.485 406.909 160.849C405.418 159.213 403.378 158.395 400.791 158.395C397.919 158.395 395.637 159.342 393.945 161.24C392.249 163.131 391.401 165.977 391.401 169.766V193.883H382.1V167.785C382.1 164.801 381.394 162.489 379.99 160.852C378.582 159.216 376.588 158.398 374.005 158.398C371.189 158.398 368.894 159.359 367.115 161.283C365.336 163.207 364.445 166.036 364.445 169.766V193.883H355.145V150.813H364.445V155.98C367.201 151.79 371.308 149.693 376.761 149.693C382.272 149.693 386.35 151.962 388.993 156.497C391.861 151.962 396.257 149.693 402.169 149.693Z" fill="black"/>
<path d="M432.878 142.588C431.699 143.767 430.307 144.353 428.701 144.353C427.095 144.353 425.7 143.764 424.524 142.588C423.345 141.412 422.759 140.021 422.759 138.411C422.759 136.801 423.332 135.413 424.481 134.234C425.631 133.055 427.035 132.469 428.701 132.469C430.367 132.469 431.772 133.058 432.921 134.234C434.07 135.41 434.643 136.801 434.643 138.411C434.643 140.021 434.054 141.412 432.878 142.588ZM424.051 193.879V150.812H433.351V193.879H424.051Z" fill="black"/>
<path d="M439.726 193.877V131H449.026V193.877H439.726Z" fill="black"/>
<path d="M462.72 176.311C463.409 179.58 464.989 182.094 467.456 183.846C469.924 185.599 472.938 186.473 476.499 186.473C481.434 186.473 485.141 184.694 487.608 181.134L495.276 185.612C491.027 191.872 484.74 194.999 476.413 194.999C469.407 194.999 463.753 192.859 459.447 188.583C455.141 184.307 452.988 178.891 452.988 172.346C452.988 165.914 455.111 160.531 459.364 156.195C463.611 151.86 469.066 149.693 475.727 149.693C482.04 149.693 487.227 151.903 491.275 156.325C495.323 160.746 497.346 166.112 497.346 172.432C497.346 173.409 497.23 174.701 496.999 176.308H462.72V176.311ZM462.634 168.729H487.956C487.327 165.225 485.876 162.585 483.604 160.803C481.335 159.024 478.678 158.133 475.638 158.133C472.193 158.133 469.321 159.08 467.022 160.978C464.727 162.87 463.266 165.457 462.634 168.729Z" fill="black"/>
<path d="M525.509 149.692C531.418 149.692 536.476 151.874 540.666 156.237C544.859 160.602 546.956 165.972 546.956 172.344C546.956 178.661 544.859 184.017 540.666 188.406C536.476 192.798 531.421 194.997 525.509 194.997C518.961 194.997 513.936 192.559 510.438 187.677V193.878H501.134V133.584H510.438V156.926C513.936 152.103 518.961 149.692 525.509 149.692ZM514.31 182.205C516.89 184.818 520.136 186.127 524.042 186.127C527.947 186.127 531.189 184.818 533.773 182.205C536.357 179.595 537.652 176.306 537.652 172.344C537.652 168.383 536.357 165.094 533.773 162.484C531.193 159.87 527.947 158.562 524.042 158.562C520.136 158.562 516.894 159.87 514.31 162.484C511.726 165.094 510.435 168.383 510.435 172.344C510.435 176.306 511.726 179.595 514.31 182.205Z" fill="black"/>
<path d="M558.321 176.311C559.01 179.58 560.59 182.094 563.058 183.846C565.525 185.599 568.539 186.473 572.103 186.473C577.039 186.473 580.745 184.694 583.213 181.134L590.881 185.612C586.631 191.872 580.344 194.999 572.017 194.999C565.012 194.999 559.358 192.859 555.048 188.583C550.742 184.307 548.593 178.891 548.593 172.346C548.593 165.914 550.716 160.531 554.966 156.195C559.212 151.86 564.667 149.693 571.328 149.693C577.642 149.693 582.829 151.903 586.876 156.325C590.924 160.746 592.948 166.112 592.948 172.432C592.948 173.409 592.832 174.701 592.6 176.308H558.321V176.311ZM558.238 168.729H583.561C582.931 165.225 581.48 162.585 579.208 160.803C576.939 159.024 574.283 158.133 571.242 158.133C567.797 158.133 564.926 159.08 562.627 160.978C560.332 162.87 558.864 165.457 558.238 168.729Z" fill="black"/>
<path d="M611.011 167.578C601.098 167.578 593.052 159.838 592.694 149.957L601.965 149.619C602.141 154.488 606.112 158.301 611.011 158.301V167.578Z" fill="#E63189"/>
<path d="M644.364 54.5314C625.356 89.9696 590.937 105.333 551.623 100.96C547.778 100.53 546.186 98.7676 546.035 94.6749C545.703 85.379 545.059 76.1046 544.342 66.8539L550.335 55.2194C550.395 55.2199 550.431 55.2081 550.467 55.1963C575.434 50.9929 594.264 38.0019 605.446 14.7144C607.183 11.1077 608.17 7.14489 609.335 3.30425C610.359 0.0297254 611.925 -0.319699 614.276 2.01658C622.285 9.97457 629.431 18.6135 635.276 28.3764C636.456 30.3532 637.853 32.3198 639.916 33.8692C648.905 40.6282 649.6 44.4236 644.364 54.5314Z" fill="#5AAB4E"/>
<path d="M639.853 33.8342C637.778 32.2786 636.371 30.3069 635.181 28.3253C629.291 18.5389 622.096 9.87496 614.036 1.89086C611.671 -0.453089 610.099 -0.106655 609.078 3.1693C607.916 7.0117 606.934 10.9768 605.197 14.5837C594.018 37.873 575.137 50.8379 550.075 54.992C550.039 55.0038 550.003 55.0155 549.943 55.0148C544.966 55.8581 543.296 58.1005 543.675 62.9494C543.767 64.1827 543.858 65.416 543.95 66.6493C544.689 75.9119 545.357 85.1979 545.71 94.5049C545.871 98.6025 547.473 100.371 551.335 100.809C590.822 105.272 625.353 89.9655 644.363 54.5289C649.6 44.4211 648.894 40.6201 639.853 33.8342ZM636.747 54.5599C620.429 85.2394 587.484 97.4686 555.72 94.8246C553.084 94.5923 552.122 93.5192 551.978 90.92C551.53 82.3249 551.107 73.6818 550.249 65.1188C549.846 61.1396 552.338 61.2979 554.707 60.8147C572.061 57.1617 587.065 49.256 598.975 35.8333C604.385 29.7387 608.577 22.8946 611.669 15.3626C613.316 11.2835 615.015 11.3371 617.5 14.6247C623.312 22.2113 629.221 29.7264 635.082 37.2773C642.754 47.1906 642.029 43.776 636.747 54.5599Z" fill="#333333"/>
<path d="M630.838 43.846C626.436 38.8412 622.326 33.565 618.275 28.2896C616.297 25.7364 615.159 25.5412 613.484 28.5591C602.786 47.5677 586.553 59.784 565.717 65.6279C559.542 67.351 557.811 69.9492 558.491 76.1361C559.898 88.7739 559.596 88.9494 572.581 87.9063C597.566 85.9144 617.053 74.7124 630.165 53.1869C631.649 50.1305 634.005 47.4331 630.838 43.846ZM585.63 76.0054C579.782 75.159 578 70.9923 582.052 66.8217C589.512 59.1422 598.737 53.8453 608.842 50.3564C612.684 49.0563 614.93 51.266 615.055 55.422C615.121 58.4039 613.595 60.8373 612.357 63.3584C607.535 74.7136 594.678 77.3267 585.63 76.0054Z" fill="#8CDD80"/>
<path d="M183.513 167.431C154.965 220.657 103.269 243.732 44.2227 237.164C38.4477 236.519 36.0567 233.871 35.8301 227.724C35.3313 213.762 34.3634 199.833 33.2867 185.939L42.2877 168.464C42.3778 168.465 42.4322 168.448 42.4866 168.43C79.9843 162.117 108.266 142.605 125.061 107.629C127.67 102.211 129.153 96.2596 130.903 90.4912C132.441 85.5731 134.792 85.0483 138.323 88.5572C150.352 100.51 161.085 113.485 169.863 128.148C171.637 131.117 173.734 134.071 176.833 136.398C190.333 146.549 191.378 152.25 183.513 167.431Z" fill="#5AAB4E"/>
<path d="M176.739 136.346C173.622 134.009 171.509 131.048 169.722 128.072C160.876 113.373 150.07 100.361 137.964 88.369C134.411 84.8485 132.051 85.3689 130.517 90.2891C128.772 96.0602 127.297 102.015 124.688 107.433C107.898 142.412 79.5401 161.884 41.899 168.124C41.8444 168.141 41.7899 168.159 41.6994 168.158C34.2252 169.424 31.7173 172.792 32.2864 180.075C32.4237 181.927 32.5611 183.78 32.6984 185.632C33.8095 199.544 34.8115 213.491 35.3426 227.469C35.5834 233.624 37.9901 236.28 43.7907 236.938C103.098 243.64 154.961 220.652 183.513 167.428C191.379 152.247 190.317 146.538 176.739 136.346ZM172.074 167.475C147.566 213.553 98.0839 231.921 50.376 227.95C46.4172 227.601 44.9734 225.989 44.7558 222.085C44.0834 209.176 43.4481 196.194 42.1596 183.333C41.5544 177.357 45.2975 177.595 48.8549 176.869C74.9204 171.382 97.4545 159.508 115.343 139.348C123.469 130.195 129.764 119.915 134.409 108.603C136.883 102.476 139.433 102.557 143.166 107.494C151.895 118.889 160.771 130.176 169.573 141.517C181.096 156.406 180.008 151.278 172.074 167.475Z" fill="#333333"/>
<path d="M163.198 151.384C156.587 143.867 150.413 135.942 144.33 128.019C141.359 124.184 139.65 123.891 137.133 128.424C121.066 156.974 96.6852 175.322 65.3906 184.099C56.1163 186.687 53.5164 190.589 54.5383 199.882C56.6503 218.863 56.1969 219.126 75.6999 217.56C113.226 214.568 142.494 197.743 162.188 165.413C164.416 160.823 167.955 156.772 163.198 151.384ZM95.2986 199.685C86.5147 198.414 83.8391 192.156 89.9245 185.892C101.13 174.358 114.984 166.402 130.162 161.162C135.933 159.209 139.306 162.528 139.494 168.77C139.592 173.249 137.301 176.904 135.441 180.69C128.199 197.745 108.888 201.67 95.2986 199.685Z" fill="#8CDD80"/>
<path d="M903.711 247.464C889.033 250.186 874.984 248.505 867.306 244.78C845.253 234.374 832.262 222.569 820.947 209.08C810.037 195.988 797.804 189.753 780.711 196.008C774.969 198.073 768.629 198.532 762.584 199.978C762.52 200.002 762.412 200.006 762.347 200.03L753.398 195.937C753.196 195.098 753.053 194.127 753.08 193.019C752.971 172.394 753.015 151.786 753.015 131.157C752.987 129.119 753.393 127.066 753.454 125.068C753.973 108.781 754.188 109.359 770.169 103.555C786.619 97.5391 803.424 97.9752 819.369 102.389C833.125 106.228 845.285 114.721 855.453 125.821C864.789 136.061 872.911 147.558 884.498 155.789C889.857 159.572 895.135 160.387 900.951 159.209C908.424 157.67 912.509 159.111 912.384 168.009C912.034 191.036 911.988 214.096 912.332 237.121C912.409 243.713 909.767 246.342 903.711 247.464Z" fill="#5AAB4E"/>
<path d="M912.332 237.121C911.988 214.096 912.034 191.036 912.384 168.009C912.509 159.111 908.424 157.67 900.951 159.209C895.135 160.387 889.857 159.572 884.498 155.789C872.911 147.558 864.789 136.061 855.453 125.821C845.285 114.721 833.125 106.228 819.369 102.389C803.424 97.9752 786.619 97.5391 770.169 103.555C754.188 109.359 753.973 108.781 753.454 125.068C753.393 127.066 752.987 129.119 753.015 131.157C753.015 151.786 752.971 172.394 753.08 193.019C753.053 194.127 753.196 195.098 753.398 195.937C754.32 199.983 757.418 201.133 762.347 200.03C762.412 200.006 762.52 200.002 762.584 199.978C768.629 198.532 774.969 198.073 780.711 196.008C797.804 189.753 810.037 195.988 820.947 209.08C832.262 222.569 845.253 234.374 867.306 244.78C874.984 248.505 889.033 250.186 903.711 247.464C909.767 246.342 912.409 243.713 912.332 237.121ZM889.328 237.421C868.667 239.006 854.547 227.804 841.468 214.094C836.966 209.369 831.829 205.101 828.025 199.897C817.052 184.963 802.083 181.795 785.003 184.059C778.546 184.89 772.073 185.874 764.584 186.98C764.382 164.927 764.228 143.002 763.902 121.104C763.835 117.289 766.44 116.721 769.054 115.784C800.212 104.182 825.942 110.512 848.383 135.221C856.706 144.411 864.439 154.078 874.21 161.851C878.895 165.593 884.184 169.878 889.584 169.842C902.402 169.788 900.984 177.667 900.772 185.939C900.448 199.703 899.669 213.526 900.773 227.197C901.624 237.341 896.294 236.875 889.328 237.421Z" fill="#333333"/>
<path d="M891.321 215.571C891.574 206.625 891.286 197.698 891.475 188.776C891.57 184.022 889.651 181.225 885.266 179.274C873.211 173.814 862.859 166.147 854.301 155.837C848.188 148.457 841.187 141.737 834.314 134.969C819.092 120.118 800.985 117.168 780.838 122.292C775.398 123.696 773.475 126.388 773.571 131.655C773.755 141.974 774.245 152.326 773.603 162.587C772.971 172.478 776.044 176.016 786.321 174.64C806.033 171.981 822.461 177.788 835.514 193.886C844.987 205.574 855.778 216.479 871.269 222.818C872.194 223.241 874.05 224.196 875.942 224.955C888.042 229.849 890.87 228.211 891.321 215.571ZM864.902 188.137C860.315 194.088 853.312 194.83 847.065 193.572C842.256 191.266 839.455 188.066 837.574 184.487C833.715 177.072 828.639 170.806 822.835 164.847C816.288 158.068 819.409 149.261 828.937 147.542C836.655 146.168 843.108 148.959 847.405 155.881C851.358 162.273 855.29 168.709 860.726 174.074C864.745 177.99 869.24 182.498 864.902 188.137Z" fill="#8CDD80"/>
<path d="M460.396 81.5154C453.304 88.6163 444.881 93.0389 439.209 93.9018C423.029 96.5422 411.335 94.9544 399.928 91.7942C388.896 88.7005 379.745 89.9092 372.661 99.8873C370.268 103.219 366.931 105.889 364.134 108.994C364.107 109.031 364.049 109.075 364.022 109.112L357.506 110.256C357.074 109.868 356.625 109.385 356.218 108.761C348.298 97.379 340.469 85.9477 332.608 74.5221C331.816 73.4037 331.258 72.1118 330.531 70.9821C324.612 61.7634 324.951 62.0016 331.591 52.6971C338.41 43.0963 347.884 36.9341 358.397 33.3026C367.479 30.1871 377.451 30.2573 387.313 32.5305C396.386 34.6444 405.265 37.9173 414.819 38.0607C419.229 38.1141 422.463 36.554 425.235 33.6853C428.788 29.9847 431.6 29.2267 434.922 34.2026C443.503 47.0902 452.265 59.8798 461.23 72.5015C463.784 76.1231 463.323 78.5864 460.396 81.5154Z" fill="#5AAB4E"/>
<path d="M461.23 72.5015C452.265 59.8798 443.503 47.0902 434.922 34.2026C431.6 29.2267 428.788 29.9847 425.235 33.6853C422.463 36.554 419.229 38.1141 414.819 38.0607C405.265 37.9173 396.386 34.6444 387.313 32.5305C377.451 30.2573 367.479 30.1871 358.397 33.3026C347.884 36.9341 338.41 43.0963 331.591 52.6971C324.951 62.0016 324.612 61.7634 330.531 70.9821C331.258 72.1118 331.816 73.4037 332.608 74.5221C340.469 85.9477 348.298 97.379 356.218 108.761C356.625 109.385 357.074 109.868 357.506 110.256C359.558 112.146 361.713 111.602 364.022 109.112C364.049 109.075 364.107 109.031 364.134 108.994C366.931 105.889 370.268 103.219 372.661 99.8873C379.745 89.9092 388.896 88.7005 399.928 91.7942C411.335 94.9544 423.029 96.5422 439.209 93.9018C444.881 93.0389 453.304 88.6163 460.396 81.5154C463.323 78.5864 463.784 76.1231 461.23 72.5015ZM448.602 81.434C437.763 90.185 425.674 89.3614 413.205 86.7515C408.911 85.8505 404.439 85.444 400.349 84.0109C388.58 79.9215 379.082 83.8711 370.485 91.6332C367.225 94.5544 364.015 97.5662 360.288 101.032C351.773 88.8944 343.333 76.8094 334.807 64.8054C333.316 62.7178 334.543 61.4107 335.633 59.8958C348.47 41.5959 365.133 35.2972 386.978 40.431C395.091 42.3495 403.057 44.7568 411.431 45.3389C415.452 45.6261 420.015 45.9835 422.992 43.906C430.071 38.9912 432.288 43.8962 435.323 48.5585C440.388 56.3057 445.225 64.2584 451.046 71.4098C455.382 76.7039 452.253 78.4773 448.602 81.434Z" fill="#333333"/>
<path d="M441.379 68.5736C438.11 63.5222 434.549 58.6875 431.254 53.6739C429.495 51.0046 427.366 50.1869 424.194 50.7766C415.436 52.3463 406.781 52.0452 398.112 49.5956C391.914 47.8376 385.475 46.7835 379.09 45.654C364.999 43.2294 353.846 48.4951 344.64 59.011C342.162 61.8612 342.122 64.0851 344.183 66.9662C348.217 72.6111 352.433 78.158 355.988 84.0857C359.407 89.8056 362.457 90.5939 367.625 85.9151C377.53 76.931 388.841 73.8874 402.206 77.8292C411.906 80.6932 422.039 82.6212 433.034 80.2287C433.708 80.1104 435.1 79.9325 436.437 79.6317C445.004 77.7314 445.946 75.7463 441.379 68.5736ZM416.292 63.446C416.019 68.4902 412.423 71.5696 408.483 73.2535C404.941 73.8089 402.171 73.1038 399.765 71.8385C394.802 69.2019 389.603 67.6658 384.117 66.5767C377.907 65.3171 376.28 59.2497 380.903 54.6667C384.654 50.9644 389.291 50.0514 394.309 52.2482C398.934 54.2822 403.565 56.3483 408.62 57.2481C412.338 57.8861 416.546 58.6699 416.292 63.446Z" fill="#8CDD80"/>
<path d="M300.592 231.795C309.815 233.881 319.753 234.393 329.562 234.775C340.452 235.2 351.357 235.505 362.267 235.699C383.659 236.078 405.076 236.019 426.46 235.521C469.367 234.523 511.79 231.28 554.293 227.945C566.285 227.004 578.283 226.087 590.304 225.274C596.212 224.875 602.126 224.499 608.046 224.159C611.006 223.989 613.967 223.824 616.931 223.675C619.104 223.566 621.645 223.291 623.629 223.928C623.046 222.652 622.464 221.377 621.882 220.102C618.346 222.806 612.329 224.175 607.011 225.336C599.921 226.884 592.764 228.332 585.578 229.726C571.124 232.529 556.526 235.079 541.892 237.55C513.015 242.427 483.963 247.003 455.494 252.636C447.674 254.183 439.818 255.744 432.183 257.575C425.555 259.165 419.088 261.158 414.607 264.478C413.308 265.44 412.582 266.737 413.845 267.867C419.303 272.746 431.482 271.157 439.944 270.902C451.323 270.56 462.702 270.217 474.081 269.874C472.516 268.694 470.951 267.514 469.386 266.334C467.792 268.611 463.281 269.917 459.754 271.013C455.761 272.253 451.595 273.474 448.389 275.366C442.631 278.764 440.566 284.811 447.376 288.266C452.057 290.641 458.97 286.7 454.262 284.311C448.66 281.469 458.248 277.849 461.901 276.695C468.981 274.457 475.617 272.336 478.777 267.821C479.937 266.164 476.99 264.194 474.082 264.281C464.388 264.573 454.695 264.865 445.002 265.158C440.366 265.297 435.73 265.437 431.094 265.577C429.134 265.636 423.599 266.246 422.255 265.045C422.002 266.174 421.748 267.304 421.494 268.433C425.387 265.549 430.852 263.868 436.655 262.525C443.512 260.938 450.512 259.532 457.499 258.145C471.917 255.285 486.492 252.697 501.114 250.206C530.568 245.19 560.238 240.566 589.339 234.892C597.23 233.353 605.161 231.804 612.877 229.992C619.74 228.379 625.776 226.38 630.292 222.925C631.852 221.732 630.64 219.772 628.545 219.1C624.458 217.789 620.172 217.915 615.662 218.15C610.16 218.437 604.663 218.757 599.172 219.103C588.61 219.768 578.066 220.528 567.533 221.329C546.041 222.962 524.586 224.763 503.066 226.275C460.181 229.288 417.028 230.717 373.821 230.27C361.623 230.143 349.43 229.875 337.252 229.463C325.752 229.073 314.028 228.856 303.181 226.403C300.716 225.845 297.859 227.015 297.191 228.356C296.403 229.937 298.156 231.245 300.592 231.795Z" fill="#E63189"/>
</svg>
