<svg width="24" height="24" viewBox="0 0 24 24">
<path d="M20.75 10.7557L9.875 10.7557L9.875 8.25566C9.875 7.75566 9.625 7.38066 9.25 7.13066C8.75 6.88066 8.25 7.00566 7.875 7.25566L2.5 11.0057C2.25 11.2557 2 11.6307 2 12.0057C2 12.3807 2.25 12.7557 2.5 13.0057L7.875 16.7557C8.125 16.8807 8.375 17.0057 8.625 17.0057C8.875 17.0057 9 17.0057 9.25 16.8807C9.625 16.6307 9.875 16.2557 9.875 15.7557L9.875 13.2557L20.75 13.2557C21.5 13.2557 22 12.7557 22 12.0057C22 11.2557 21.5 10.7557 20.75 10.7557Z"/>
</svg>
