<svg width="25" height="24" viewBox="0 0 25 24">
<path d="M21.7501 8.54969C21.3201 8.02969 20.6801 7.72969 20.0001 7.72969H17.1501V6.22969C17.1501 4.40969 15.6701 2.92969 13.8501 2.92969H11.4101C9.59007 2.92969 8.11007 4.40969 8.11007 6.22969V7.72969H5.00007C4.32007 7.72969 3.68007 8.02969 3.24007 8.54969C2.81007 9.06969 2.63007 9.74969 2.74007 10.4197L3.84007 16.6197C3.85007 16.6997 3.87007 16.7797 3.89007 16.8597C4.11007 17.8597 4.60007 18.7397 5.29007 19.4397C6.26007 20.4497 7.64007 21.0697 9.14007 21.0697H15.8601C17.3601 21.0697 18.7401 20.4497 19.7101 19.4397C20.1201 19.0297 20.4601 18.5397 20.7201 18.0097C20.9301 17.5797 21.0801 17.1097 21.1601 16.6197L22.2601 10.4197C22.3701 9.74969 22.1901 9.06969 21.7501 8.54969ZM10.1101 6.22969C10.1101 5.51969 10.6901 4.92969 11.4101 4.92969H13.8501C14.5601 4.92969 15.1501 5.51969 15.1501 6.22969V7.72969H10.1101V6.22969ZM9.02007 11.9997C8.35007 11.9997 7.80007 11.4497 7.80007 10.7797C7.80007 10.0997 8.35007 9.55969 9.02007 9.55969C9.70007 9.55969 10.2501 10.0997 10.2501 10.7797C10.2501 11.4497 9.70007 11.9997 9.02007 11.9997ZM15.9801 11.9997C15.3001 11.9997 14.7501 11.4497 14.7501 10.7797C14.7501 10.0997 15.3001 9.55969 15.9801 9.55969C16.6501 9.55969 17.2001 10.0997 17.2001 10.7797C17.2001 11.4497 16.6501 11.9997 15.9801 11.9997Z"/>
</svg>
