<svg width="25" height="24" viewBox="0 0 25 24">
<path d="M20.5299 7.50508C20.1566 7.05367 19.6011 6.79324 19.0108 6.79324H16.5367V5.49109C16.5367 3.91116 15.2519 2.62637 13.672 2.62637H11.5538C9.97387 2.62637 8.68909 3.91116 8.68909 5.49109V6.79324H5.98931C5.399 6.79324 4.84342 7.05367 4.46146 7.50508C4.08817 7.95649 3.93192 8.54679 4.02741 9.12842L4.98231 14.5106C4.99099 14.5801 5.00836 14.6495 5.02572 14.719C5.2167 15.5871 5.64207 16.351 6.24105 16.9586C7.08311 17.8354 8.28108 18.3736 9.58323 18.3736H15.4168C16.719 18.3736 17.917 17.8354 18.759 16.9586C19.1149 16.6027 19.4101 16.1774 19.6358 15.7173C19.8181 15.344 19.9483 14.936 20.0177 14.5106L20.9727 9.12842C21.0681 8.54679 20.9119 7.95649 20.5299 7.50508ZM10.4253 5.49109C10.4253 4.87474 10.9288 4.36257 11.5538 4.36257H13.672C14.2883 4.36257 14.8005 4.87474 14.8005 5.49109V6.79324H10.4253V5.49109ZM9.47905 10.5C8.89743 10.5 8.41998 10.0226 8.41998 9.44093C8.41998 8.85063 8.89743 8.38185 9.47905 8.38185C10.0694 8.38185 10.5468 8.85063 10.5468 9.44093C10.5468 10.0226 10.0694 10.5 9.47905 10.5ZM15.521 10.5C14.9307 10.5 14.4532 10.0226 14.4532 9.44093C14.4532 8.85063 14.9307 8.38185 15.521 8.38185C16.1026 8.38185 16.5801 8.85063 16.5801 9.44093C16.5801 10.0226 16.1026 10.5 15.521 10.5Z"/>
</svg>
