<svg width="41" height="41" viewBox="0 0 41 41">
<path fill-rule="evenodd" clip-rule="evenodd" d="M20.6666 0.4375C31.7041 0.4375 40.6666 9.4 40.6666 20.4375C40.6666 31.475 31.7041 40.4375 20.6666 40.4375C9.62913 40.4375 0.666626 31.475 0.666626 20.4375C0.666626 9.4 9.62913 0.4375 20.6666 0.4375ZM15.7322 11.7322C14.7559 10.7559 13.173 10.7559 12.1967 11.7322C11.2204 12.7085 11.2204 14.2915 12.1967 15.2678L16.9289 20L11.7322 25.1967C10.7559 26.173 10.7559 27.7559 11.7322 28.7322C12.7085 29.7085 14.2915 29.7085 15.2678 28.7322L20.4645 23.5355L25.6317 28.7028C26.608 29.6791 28.191 29.6791 29.1673 28.7028C30.1436 27.7265 30.1436 26.1436 29.1673 25.1673L24 20L28.7028 15.2972C29.6791 14.3209 29.6791 12.738 28.7028 11.7617C27.7265 10.7854 26.1436 10.7854 25.1673 11.7617L20.4645 16.4645L15.7322 11.7322Z"/>
</svg>
