<svg width="25" height="25" viewBox="0 0 25 25">
<path d="M17.8697 21.1116C17.6137 21.1116 17.3577 21.0136 17.1627 20.8186L15.1627 18.8186C14.7717 18.4276 14.7717 17.7956 15.1627 17.4046C15.5537 17.0136 16.1857 17.0136 16.5767 17.4046L17.8697 18.6976L21.1617 15.4046C21.5527 15.0136 22.1847 15.0136 22.5757 15.4046C22.9667 15.7956 22.9667 16.4276 22.5757 16.8186L18.5757 20.8186C18.3817 21.0136 18.1257 21.1116 17.8697 21.1116Z"/>
<path d="M21.1727 9.10437C20.7427 8.58437 20.1027 8.28438 19.4227 8.28438H16.5727V6.78437C16.5727 4.96437 15.0927 3.48438 13.2727 3.48438H10.8327C9.01267 3.48438 7.53267 4.96437 7.53267 6.78437V8.28438H4.42268C3.74268 8.28438 3.10267 8.58437 2.66267 9.10437C2.23267 9.62437 2.05267 10.3044 2.16267 10.9744L3.26267 17.1744C3.27267 17.2544 3.29268 17.3344 3.31267 17.4144C3.53268 18.4144 4.02268 19.2944 4.71268 19.9944C5.68268 21.0044 7.06267 21.6244 8.56267 21.6244H14.0027C13.2927 20.6444 12.8727 19.4244 12.8727 18.1144C12.8727 14.7944 15.5527 12.1144 18.8727 12.1144C19.7727 12.1144 20.6227 12.3144 21.3827 12.6744L21.6827 10.9744C21.7927 10.3044 21.6127 9.62437 21.1727 9.10437ZM8.44267 12.5544C7.77267 12.5544 7.22267 12.0044 7.22267 11.3344C7.22267 10.6544 7.77267 10.1144 8.44267 10.1144C9.12267 10.1144 9.67267 10.6544 9.67267 11.3344C9.67267 12.0044 9.12267 12.5544 8.44267 12.5544ZM9.53267 8.28438V6.78437C9.53267 6.07437 10.1127 5.48438 10.8327 5.48438H13.2727C13.9827 5.48438 14.5727 6.07437 14.5727 6.78437V8.28438H9.53267ZM15.4027 12.5544C14.7227 12.5544 14.1727 12.0044 14.1727 11.3344C14.1727 10.6544 14.7227 10.1144 15.4027 10.1144C16.0727 10.1144 16.6227 10.6544 16.6227 11.3344C16.6227 12.0044 16.0727 12.5544 15.4027 12.5544Z"/>
</svg>
