<svg width="24" height="24" viewBox="0 0 24 24">
<path fill-rule="evenodd" clip-rule="evenodd" d="M12 4C16.415 4 20 7.585 20 12C20 16.415 16.415 20 12 20C7.585 20 4 16.415 4 12C4 7.585 7.585 4 12 4ZM13.331 16C13.881 16 14.327 15.554 14.327 15.004C14.327 14.454 13.881 14.007 13.331 14.007H12.998V10.757C12.998 10.314 12.759 10 12.318 10C12.315 10 10.683 10 10.683 10C10.129 10 9.678 10.45 9.678 11.005C9.678 11.56 10.129 12.01 10.683 12.01H10.995V14.007H10.654C10.104 14.007 9.657 14.454 9.657 15.004C9.657 15.554 10.104 16 10.654 16H13.331ZM12 6.658C12.741 6.658 13.342 7.259 13.342 8C13.342 8.741 12.741 9.342 12 9.342C11.259 9.342 10.658 8.741 10.658 8C10.658 7.259 11.259 6.658 12 6.658Z"/>
</svg>
