<svg width="41" height="41" viewBox="0 0 41 41">
<path fill-rule="evenodd" clip-rule="evenodd" d="M25.78 32.5547H15.22C11.5105 32.5547 8.5 29.5442 8.5 25.8347V15.2747C8.5 11.5652 11.5105 8.55469 15.22 8.55469H25.78C29.4895 8.55469 32.5 11.5652 32.5 15.2747V25.8347C32.5 29.5442 29.4895 32.5547 25.78 32.5547ZM25.72 11.5547H15.28C13.1935 11.5547 11.5 13.2482 11.5 15.3347V25.7747C11.5 27.8612 13.1935 29.5547 15.28 29.5547H25.72C27.8065 29.5547 29.5 27.8612 29.5 25.7747V15.3347C29.5 13.2482 27.8065 11.5547 25.72 11.5547ZM26.5 13.0547C27.328 13.0547 28 13.7267 28 14.5547C28 15.3827 27.328 16.0547 26.5 16.0547C25.672 16.0547 25 15.3827 25 14.5547C25 13.7267 25.672 13.0547 26.5 13.0547ZM20.5 14.5547C23.812 14.5547 26.5 17.2427 26.5 20.5547C26.5 23.8667 23.812 26.5547 20.5 26.5547C17.188 26.5547 14.5 23.8667 14.5 20.5547C14.5 17.2427 17.188 14.5547 20.5 14.5547ZM20.5 17.5547C22.156 17.5547 23.5 18.8987 23.5 20.5547C23.5 22.2107 22.156 23.5547 20.5 23.5547C18.844 23.5547 17.5 22.2107 17.5 20.5547C17.5 18.8987 18.844 17.5547 20.5 17.5547Z"/>
</svg>
