<svg width="40" height="41" viewBox="0 0 40 41">
<path fill-rule="evenodd" clip-rule="evenodd" d="M20 0.4375C31.0375 0.4375 40 9.4 40 20.4375C40 31.475 31.0375 40.4375 20 40.4375C8.9625 40.4375 0 31.475 0 20.4375C0 9.4 8.9625 0.4375 20 0.4375ZM27.2125 13.9932C27.5675 14.0207 27.905 14.1057 28.2225 14.2707C28.43 14.3807 28.6225 14.5182 28.7925 14.6807C29.4525 15.3107 29.7175 16.2757 29.475 17.1557C29.37 17.5357 29.1725 17.8732 28.915 18.1707C25.9475 21.2807 22.9075 24.3182 19.8 27.2857C19.595 27.4632 19.375 27.6157 19.125 27.7257C18.4875 28.0082 17.745 28.0082 17.1075 27.7257C16.8575 27.6157 16.6375 27.4632 16.4325 27.2857C14.6725 25.6032 12.9475 23.8832 11.2675 22.1207C11.01 21.8232 10.8125 21.4857 10.7075 21.1032C10.645 20.8782 10.615 20.6432 10.6175 20.4082C10.6275 19.4557 11.2 18.5707 12.065 18.1707C12.35 18.0382 12.6575 17.9607 12.97 17.9432C13.2825 17.9232 13.5975 17.9657 13.895 18.0632C14.2725 18.1857 14.5975 18.3982 14.885 18.6707L18.1175 21.9032C20.5375 19.4807 22.905 17.0032 25.3825 14.6407C25.4725 14.5632 25.4725 14.5632 25.5625 14.4907C25.6925 14.3982 25.8225 14.3157 25.9625 14.2457C26.2475 14.1057 26.5475 14.0307 26.86 13.9982C26.98 13.9907 27.095 13.9882 27.2125 13.9932Z"/>
</svg>
