<svg width="41" height="41" viewBox="0 0 41 41">
<path d="M26.9547 12.5676C25.8867 11.4349 25.4013 10.1081 25.4013 8.55469C23.9773 8.55469 22.5858 8.55469 21.1618 8.55469C21.1618 8.68414 21.1618 8.78122 21.1618 8.87831C21.1618 11.7586 21.1618 14.6388 21.1618 17.4867C21.1618 18.8782 21.1618 20.2375 21.1618 21.629C21.1618 22.6646 21.1295 23.7002 21.1618 24.7035C21.2265 27.0983 18.9612 28.8458 16.6635 28.0691C15.1424 27.5513 14.1716 25.9979 14.3981 24.4446C14.6246 22.8264 15.9191 21.5643 17.5372 21.4996C17.9256 21.4672 18.3463 21.532 18.767 21.5643C18.767 21.5967 18.767 21.5643 18.767 21.532C18.767 20.1727 18.767 18.8135 18.767 17.4219C18.767 17.2925 18.7023 17.2601 18.6052 17.2601C17.7314 17.163 16.8253 17.2278 15.9839 17.4219C11.4531 18.5546 8.99361 23.2148 10.5794 27.5513C11.8415 30.9817 15.4984 33.0853 19.0583 32.438C22.7799 31.7584 25.3689 28.6517 25.4013 24.8653C25.4013 23.7326 25.4013 22.5999 25.4013 21.4996C25.4013 19.8815 25.4013 18.231 25.4013 16.6129C25.4013 16.5482 25.4013 16.4834 25.4013 16.354C27.0194 17.6485 28.864 18.2634 30.9029 18.2957C30.9029 16.9365 30.9029 15.5773 30.9029 14.2504C29.3495 14.2181 28.0226 13.6679 26.9547 12.5676Z"/>
</svg>
