<?xml version="1.0" encoding="utf-8"?><svg viewBox="0 0 41 41" xmlns="http://www.w3.org/2000/svg" xmlns:xlink="http://www.w3.org/1999/xlink"><style>:root>svg{display:none}:root>svg:target{display:block}</style><svg viewBox="0 0 25 24" id="cart"><path d="M21.75 8.55c-.43-.52-1.07-.82-1.75-.82h-2.85v-1.5c0-1.82-1.48-3.3-3.3-3.3h-2.44c-1.82 0-3.3 1.48-3.3 3.3v1.5H5c-.68 0-1.32.3-1.76.82-.43.52-.61 1.2-.5 1.87l1.1 6.2c.01.08.03.16.05.24.22 1 .71 1.88 1.4 2.58a5.338 5.338 0 003.85 1.63h6.72c1.5 0 2.88-.62 3.85-1.63.41-.41.75-.9 1.01-1.43.21-.43.36-.9.44-1.39l1.1-6.2c.11-.67-.07-1.35-.51-1.87zM10.11 6.23c0-.71.58-1.3 1.3-1.3h2.44c.71 0 1.3.59 1.3 1.3v1.5h-5.04v-1.5zM9.02 12c-.67 0-1.22-.55-1.22-1.22 0-.68.55-1.22 1.22-1.22.68 0 1.23.54 1.23 1.22 0 .67-.55 1.22-1.23 1.22zm6.96 0c-.68 0-1.23-.55-1.23-1.22 0-.68.55-1.22 1.23-1.22.67 0 1.22.54 1.22 1.22 0 .67-.55 1.22-1.22 1.22z"/></svg><svg viewBox="0 0 24 25" id="checkbox" xmlns="http://www.w3.org/2000/svg"><path d="M18.2 2.533H6.3c-2.3 0-4.3 1.9-4.3 4.3v11.8c0 2.4 2 4.3 4.3 4.3h11.8c2.4 0 4.3-2 4.3-4.3v-11.8c.1-2.4-1.8-4.3-4.2-4.3zm2.3 16.2c0 1.3-1 2.3-2.3 2.3H6.3c-1.3 0-2.3-1-2.3-2.3v-11.9c0-1.3 1-2.3 2.3-2.3h11.8c1.3 0 2.3 1 2.3 2.3v11.9h.1z"/></svg><svg viewBox="0 0 24 25" id="checkbox-active" xmlns="http://www.w3.org/2000/svg"><path d="M18.2 2.533H6.3c-2.4 0-4.3 1.9-4.3 4.3v11.8c0 2.4 1.9 4.3 4.3 4.3h11.8c2.4 0 4.3-2 4.3-4.3v-11.8c.1-2.4-1.8-4.3-4.2-4.3zm-.7 7.8l-6.4 6.4c-.4.4-1 .4-1.4 0l-2.8-2.8c-.4-.4-.4-1 0-1.4.4-.4 1-.4 1.4 0l2.2 2 5.7-5.7c.4-.4 1-.4 1.4 0 .3.5.3 1.1-.1 1.5z"/></svg><svg viewBox="0 0 41 41" id="facebook"><path fill-rule="evenodd" clip-rule="evenodd" d="M22.375 32.555V21.73h3.71l.555-4.307h-4.265v-2.75c0-1.246.347-2.095 2.135-2.095l2.28-.002V8.724c-.395-.053-1.748-.17-3.323-.17-3.287 0-5.539 2.007-5.539 5.694v3.175H14.21v4.307h3.718v10.825h4.447z"/></svg><svg viewBox="0 0 41 41" id="instagram"><path fill-rule="evenodd" clip-rule="evenodd" d="M25.78 32.555H15.22c-3.71 0-6.72-3.01-6.72-6.72v-10.56c0-3.71 3.01-6.72 6.72-6.72h10.56c3.71 0 6.72 3.01 6.72 6.72v10.56c0 3.71-3.01 6.72-6.72 6.72zm-.06-21H15.28a3.781 3.781 0 00-3.78 3.78v10.44a3.781 3.781 0 003.78 3.78h10.44a3.781 3.781 0 003.78-3.78v-10.44a3.781 3.781 0 00-3.78-3.78zm.78 1.5a1.5 1.5 0 11-.001 3 1.5 1.5 0 01.001-3zm-6 1.5c3.312 0 6 2.688 6 6s-2.688 6-6 6-6-2.688-6-6 2.688-6 6-6zm0 3a3.001 3.001 0 010 6 3.001 3.001 0 010-6z"/></svg><svg viewBox="0 0 41 41" id="tiktok"><path d="M26.955 12.568c-1.068-1.133-1.554-2.46-1.554-4.013h-4.24V21.629c0 1.036-.032 2.071 0 3.074.066 2.395-2.2 4.143-4.498 3.366-1.52-.518-2.491-2.071-2.265-3.624.227-1.619 1.521-2.88 3.14-2.945.388-.033.808.032 1.229.064v-.032-4.11c0-.13-.065-.162-.162-.162a7.911 7.911 0 00-2.621.162c-4.53 1.133-6.99 5.793-5.405 10.13 1.262 3.43 4.92 5.533 8.48 4.886 3.72-.68 6.31-3.786 6.342-7.573V21.5v-4.887-.259c1.618 1.294 3.463 1.91 5.502 1.942V14.25c-1.553-.032-2.88-.582-3.948-1.682z"/></svg></svg>