<svg width="111" height="24" viewBox="0 0 111 24" fill="none" xmlns="http://www.w3.org/2000/svg">
<path d="M4.69832 11.887C4.69832 12.4261 4.99394 12.8509 5.58643 13.1627C6.17891 13.4744 6.89934 13.744 7.75018 13.9688C8.60102 14.1961 9.45684 14.4594 10.3189 14.7613C11.1796 15.0619 11.9063 15.5736 12.4988 16.2953C13.0912 17.0169 13.3869 17.9274 13.3869 19.0254C13.3869 20.5756 12.7894 21.7928 11.5945 22.676C10.3996 23.5591 8.89789 24.0001 7.08938 24.0001C5.49576 24.0001 4.1282 23.6659 2.9867 22.9989C1.8452 22.3319 1.01672 21.4041 0.5 20.2191L3.50342 18.4752C4.06361 20.0253 5.25851 20.8004 7.08938 20.8004C8.92025 20.8004 9.83444 20.1992 9.83444 18.9919C9.83444 18.4752 9.53757 18.0553 8.94633 17.7324C8.35385 17.4094 7.63218 17.1349 6.78258 16.9089C5.93174 16.6828 5.07592 16.4195 4.21514 16.1177C3.35436 15.8171 2.62773 15.3152 2.03524 14.6159C1.44276 13.9154 1.14714 13.0285 1.14714 11.9504C1.14714 10.4661 1.7123 9.26991 2.84261 8.36566C3.97293 7.4614 5.37776 7.00928 7.05833 7.00928C8.39235 7.00928 9.58229 7.3049 10.6269 7.89738C11.6703 8.48987 12.4727 9.31339 13.0329 10.3692L10.0928 12.0162C9.53261 10.789 8.52153 10.1754 7.05708 10.1754C6.38883 10.1754 5.82988 10.3207 5.37776 10.6114C4.92563 10.902 4.69832 11.3268 4.69832 11.887Z" fill="black"/>
<path d="M32.4433 7.00928C34.2741 7.00928 35.7485 7.60176 36.8689 8.78549C37.988 9.97046 38.5482 11.5641 38.5482 13.5664V23.579H35.0604V13.7924C35.0604 12.6733 34.7797 11.8063 34.2207 11.1927C33.6618 10.5791 32.8967 10.2723 31.9266 10.2723C30.8497 10.2723 29.9938 10.6275 29.3591 11.3393C28.7232 12.0485 28.4052 13.1155 28.4052 14.5364V23.5802H24.9174V13.7937C24.9174 12.6745 24.6528 11.8075 24.1261 11.1939C23.5982 10.5803 22.8505 10.2735 21.8816 10.2735C20.8259 10.2735 19.9651 10.6337 19.2981 11.3554C18.631 12.0771 18.2969 13.1378 18.2969 14.5364V23.5802H14.8091V7.42911H18.2969V9.3668C19.3304 7.79553 20.8706 7.00928 22.9151 7.00928C24.9819 7.00928 26.511 7.86012 27.5022 9.56057C28.5778 7.86012 30.2261 7.00928 32.4433 7.00928Z" fill="black"/>
<path d="M43.9589 4.34493C43.5167 4.78712 42.995 5.00697 42.3926 5.00697C41.7902 5.00697 41.2672 4.78588 40.8263 4.34493C40.3841 3.90398 40.1642 3.3823 40.1642 2.77863C40.1642 2.17497 40.3791 1.65453 40.8101 1.21234C41.2412 0.770146 41.7678 0.550293 42.3926 0.550293C43.0174 0.550293 43.544 0.771388 43.975 1.21234C44.406 1.65328 44.6209 2.17497 44.6209 2.77863C44.6209 3.3823 44.3998 3.90398 43.9589 4.34493ZM40.6487 23.579V7.42908H44.1365V23.579H40.6487Z" fill="black"/>
<path d="M46.5263 23.5789V0H50.0141V23.5789H46.5263Z" fill="black"/>
<path d="M55.149 16.9909C55.4074 18.2168 55.9998 19.1596 56.9252 19.8166C57.8506 20.4737 58.9809 20.8016 60.3162 20.8016C62.1669 20.8016 63.5568 20.1346 64.4822 18.7994L67.3577 20.4787C65.7641 22.8263 63.4065 23.9988 60.2839 23.9988C57.6568 23.9988 55.5365 23.1964 53.9218 21.5929C52.3071 19.9893 51.4997 17.9585 51.4997 15.5041C51.4997 13.0919 52.2959 11.0735 53.8908 9.44753C55.4831 7.82162 57.5289 7.00928 60.0268 7.00928C62.3942 7.00928 64.3394 7.83776 65.8572 9.49598C67.3751 11.1542 68.134 13.1664 68.134 15.5363C68.134 15.9028 68.0905 16.3872 68.0036 16.9896H55.149V16.9909ZM55.1167 14.1477H64.6126C64.3766 12.8335 63.8326 11.8436 62.9805 11.1753C62.1297 10.5083 61.1335 10.1742 59.9932 10.1742C58.7014 10.1742 57.6245 10.5294 56.7625 11.2411C55.9017 11.9504 55.354 12.9205 55.1167 14.1477Z" fill="black"/>
<path d="M78.6956 7.00912C80.9115 7.00912 82.8082 7.82767 84.3795 9.46352C85.952 11.1006 86.7383 13.1141 86.7383 15.5039C86.7383 17.8726 85.952 19.8811 84.3795 21.5269C82.8082 23.1739 80.9128 23.9987 78.6956 23.9987C76.24 23.9987 74.3557 23.0845 73.044 21.2536V23.5788H69.555V0.96875H73.044V9.72188C74.3557 7.91337 76.24 7.00912 78.6956 7.00912ZM74.4961 19.2016C75.4637 20.1817 76.6809 20.6723 78.1454 20.6723C79.6098 20.6723 80.8258 20.1817 81.7947 19.2016C82.7635 18.2229 83.2492 16.9895 83.2492 15.5039C83.2492 14.0183 82.7635 12.7849 81.7947 11.8061C80.8271 10.8261 79.6098 10.3355 78.1454 10.3355C76.6809 10.3355 75.4649 10.8261 74.4961 11.8061C73.5272 12.7849 73.0428 14.0183 73.0428 15.5039C73.0428 16.9895 73.5272 18.2229 74.4961 19.2016Z" fill="black"/>
<path d="M90.9999 16.9909C91.2583 18.2168 91.8508 19.1596 92.7762 19.8166C93.7015 20.4737 94.8318 20.8016 96.1684 20.8016C98.0191 20.8016 99.409 20.1346 100.334 18.7994L103.21 20.4787C101.616 22.8263 99.2587 23.9988 96.1361 23.9988C93.509 23.9988 91.3887 23.1964 89.7727 21.5929C88.158 19.9893 87.3519 17.9585 87.3519 15.5041C87.3519 13.0919 88.1481 11.0735 89.7417 9.44753C91.3341 7.82162 93.3798 7.00928 95.8777 7.00928C98.2452 7.00928 100.19 7.83776 101.708 9.49598C103.226 11.1542 103.985 13.1664 103.985 15.5363C103.985 15.9028 103.941 16.3872 103.855 16.9896H90.9999V16.9909ZM90.9689 14.1477H100.465C100.229 12.8335 99.6848 11.8436 98.8327 11.1753C97.9818 10.5083 96.9857 10.1742 95.8454 10.1742C94.5536 10.1742 93.4767 10.5294 92.6147 11.2411C91.7539 11.9504 91.2036 12.9205 90.9689 14.1477Z" fill="black"/>
<path d="M110.758 13.7181C107.041 13.7181 104.023 10.8153 103.889 7.11009L107.366 6.9834C107.432 8.8093 108.921 10.239 110.758 10.239V13.7181Z" fill="#E63189"/>
</svg>
