<svg width="93" height="21" viewBox="0 0 93 21" fill="none" xmlns="http://www.w3.org/2000/svg">
<path d="M4.05771 10.2875C4.05771 10.7367 4.30407 11.0907 4.7978 11.3505C5.29154 11.6103 5.89189 11.8349 6.60093 12.0223C7.30997 12.2117 8.02314 12.4311 8.74149 12.6826C9.45881 12.9331 10.0643 13.3596 10.5581 13.961C11.0518 14.5624 11.2982 15.3211 11.2982 16.2361C11.2982 17.5279 10.8003 18.5423 9.80453 19.2782C8.80877 20.0142 7.55735 20.3816 6.05026 20.3816C4.72224 20.3816 3.58261 20.1032 2.63136 19.5474C1.68011 18.9915 0.98971 18.2183 0.559113 17.2308L3.06196 15.7776C3.52878 17.0694 4.52454 17.7153 6.05026 17.7153C7.57598 17.7153 8.33781 17.2143 8.33781 16.2082C8.33781 15.7776 8.09042 15.4277 7.59772 15.1586C7.10398 14.8895 6.5026 14.6607 5.79459 14.4723C5.08556 14.2839 4.37238 14.0645 3.65506 13.813C2.93775 13.5625 2.33222 13.1443 1.83848 12.5615C1.34475 11.9778 1.09839 11.2387 1.09839 10.3402C1.09839 9.10331 1.56936 8.10652 2.51129 7.35297C3.45322 6.59943 4.62391 6.22266 6.02438 6.22266C7.13607 6.22266 8.12769 6.46901 8.9982 6.96274C9.86767 7.45648 10.5363 8.14275 11.0032 9.02257L8.55311 10.3951C8.08628 9.37243 7.24372 8.8611 6.02335 8.8611C5.46647 8.8611 5.00068 8.9822 4.62391 9.22442C4.24714 9.46663 4.05771 9.82063 4.05771 10.2875Z" fill="white"/>
<path d="M27.1785 6.22266C28.7042 6.22266 29.9329 6.71639 30.8665 7.70283C31.7991 8.69031 32.266 10.0183 32.266 11.6869V20.0308H29.3594V11.8753C29.3594 10.9427 29.1255 10.2202 28.6597 9.70884C28.1939 9.1975 27.5563 8.94184 26.7479 8.94184C25.8505 8.94184 25.1373 9.23787 24.6084 9.83098C24.0784 10.422 23.8134 11.3112 23.8134 12.4953V20.0318H20.9069V11.8763C20.9069 10.9437 20.6864 10.2212 20.2475 9.70987C19.8076 9.19854 19.1845 8.94287 18.3771 8.94287C17.4973 8.94287 16.78 9.24305 16.2242 9.84443C15.6683 10.4458 15.3899 11.3298 15.3899 12.4953V20.0318H12.4833V6.57252H15.3899V8.18726C16.2511 6.87787 17.5346 6.22266 19.2383 6.22266C20.9607 6.22266 22.2349 6.93169 23.0609 8.34873C23.9573 6.93169 25.3309 6.22266 27.1785 6.22266Z" fill="white"/>
<path d="M36.7748 4.00204C36.4063 4.37053 35.9716 4.55374 35.4696 4.55374C34.9676 4.55374 34.5318 4.3695 34.1643 4.00204C33.7959 3.63459 33.6126 3.19985 33.6126 2.69679C33.6126 2.19374 33.7917 1.76004 34.1509 1.39155C34.5101 1.02305 34.9489 0.839844 35.4696 0.839844C35.9902 0.839844 36.4291 1.02409 36.7883 1.39155C37.1475 1.759 37.3265 2.19374 37.3265 2.69679C37.3265 3.19985 37.1423 3.63459 36.7748 4.00204ZM34.0163 20.0304V6.57217H36.9229V20.0304H34.0163Z" fill="white"/>
<path d="M38.9144 20.0309V0.381836H41.8209V20.0309H38.9144Z" fill="white"/>
<path d="M46.1 14.5406C46.3153 15.5623 46.809 16.3479 47.5801 16.8955C48.3513 17.443 49.2932 17.7163 50.4059 17.7163C51.9482 17.7163 53.1065 17.1604 53.8776 16.0477L56.2739 17.4472C54.9458 19.4035 52.9812 20.3806 50.379 20.3806C48.1898 20.3806 46.4229 19.7119 45.0773 18.3756C43.7317 17.0393 43.0589 15.347 43.0589 13.3016C43.0589 11.2915 43.7224 9.60947 45.0514 8.25454C46.3784 6.8996 48.0832 6.22266 50.1648 6.22266C52.1376 6.22266 53.7586 6.91306 55.0235 8.29491C56.2883 9.67675 56.9208 11.3536 56.9208 13.3285C56.9208 13.6339 56.8846 14.0376 56.8121 14.5396H46.1V14.5406ZM46.0731 12.1713H53.9863C53.7896 11.0762 53.3363 10.2512 52.6262 9.69435C51.9172 9.1385 51.087 8.86006 50.1368 8.86006C49.0603 8.86006 48.1629 9.1561 47.4445 9.74921C46.7272 10.3402 46.2708 11.1486 46.0731 12.1713Z" fill="white"/>
<path d="M65.7221 6.22309C67.5687 6.22309 69.1493 6.90522 70.4587 8.26843C71.7691 9.63268 72.4243 11.3106 72.4243 13.3021C72.4243 15.276 71.7691 16.9497 70.4587 18.3212C69.1493 19.6937 67.5698 20.381 65.7221 20.381C63.6758 20.381 62.1055 19.6192 61.0125 18.0935V20.0312H58.1049V1.18945H61.0125V8.48373C62.1055 6.97664 63.6758 6.22309 65.7221 6.22309ZM62.2225 16.3835C63.0288 17.2002 64.0432 17.6091 65.2636 17.6091C66.484 17.6091 67.4973 17.2002 68.3047 16.3835C69.112 15.5679 69.5168 14.54 69.5168 13.3021C69.5168 12.0641 69.112 11.0363 68.3047 10.2206C67.4983 9.40392 66.484 8.99506 65.2636 8.99506C64.0432 8.99506 63.0299 9.40392 62.2225 10.2206C61.4151 11.0363 61.0114 12.0641 61.0114 13.3021C61.0114 14.54 61.4151 15.5679 62.2225 16.3835Z" fill="white"/>
<path d="M75.9757 14.5406C76.191 15.5623 76.6848 16.3479 77.4559 16.8955C78.2271 17.443 79.169 17.7163 80.2827 17.7163C81.825 17.7163 82.9833 17.1604 83.7544 16.0477L86.1507 17.4472C84.8226 19.4035 82.858 20.3806 80.2558 20.3806C78.0666 20.3806 76.2997 19.7119 74.9531 18.3756C73.6074 17.0393 72.9357 15.347 72.9357 13.3016C72.9357 11.2915 73.5992 9.60947 74.9272 8.25454C76.2542 6.8996 77.959 6.22266 80.0405 6.22266C82.0134 6.22266 83.6344 6.91306 84.8992 8.29491C86.1641 9.67675 86.7966 11.3536 86.7966 13.3285C86.7966 13.6339 86.7603 14.0376 86.6879 14.5396H75.9757V14.5406ZM75.9499 12.1713H83.8631C83.6664 11.0762 83.2131 10.2512 82.503 9.69435C81.794 9.1385 80.9638 8.86006 80.0136 8.86006C78.9371 8.86006 78.0397 9.1561 77.3214 9.74921C76.604 10.3402 76.1455 11.1486 75.9499 12.1713Z" fill="white"/>
<path d="M92.4409 11.8134C89.3428 11.8134 86.8286 9.39442 86.7168 6.30675L89.614 6.20117C89.6689 7.72275 90.91 8.91414 92.4409 8.91414V11.8134Z" fill="white"/>
</svg>
